<?xml version="1.0" encoding="utf-8"?>
<!-- Generator: Adobe Illustrator 23.1.0, SVG Export Plug-In . SVG Version: 6.00 Build 0)  -->
<svg version="1.1" id="Layer_1" xmlns="http://www.w3.org/2000/svg" xmlns:xlink="http://www.w3.org/1999/xlink" x="0px" y="0px"
	 viewBox="0 0 3112.9 613.2" style="enable-background:new 0 0 3112.9 613.2;" xml:space="preserve">
<style type="text/css">
	.st0{fill:#7DC242;}
	.st1{fill:#E6E7E7;}
	.st2{fill:#30363C;}
	.st3{opacity:0.5;}
	.st4{opacity:0.39;}
	.st5{fill:url(#SVGID_1_);}
	.st6{fill:url(#SVGID_2_);}
	.st7{fill:url(#SVGID_3_);}
	.st8{fill:url(#SVGID_4_);}
	.st9{fill:url(#SVGID_5_);}
	.st10{fill:url(#SVGID_6_);}
	.st11{fill:url(#SVGID_7_);}
	.st12{fill:url(#SVGID_8_);}
	.st13{fill:url(#SVGID_9_);}
	.st14{fill:url(#SVGID_10_);}
	.st15{fill:url(#SVGID_11_);}
	.st16{fill:url(#SVGID_12_);}
	.st17{fill:url(#SVGID_13_);}
	.st18{fill:url(#SVGID_14_);}
	.st19{fill:url(#SVGID_15_);}
	.st20{fill:url(#SVGID_16_);}
	.st21{fill:url(#SVGID_17_);}
	.st22{fill:url(#SVGID_18_);}
	.st23{fill:url(#SVGID_19_);}
	.st24{fill:url(#SVGID_20_);}
	.st25{fill:url(#SVGID_21_);}
	.st26{fill:url(#SVGID_22_);}
	.st27{fill:url(#SVGID_23_);}
	.st28{fill:url(#SVGID_24_);}
	.st29{fill:url(#SVGID_25_);}
	.st30{fill:url(#SVGID_26_);}
	.st31{fill:url(#SVGID_27_);}
	.st32{fill:url(#SVGID_28_);}
	.st33{fill:url(#SVGID_29_);}
	.st34{fill:url(#SVGID_30_);}
	.st35{fill:url(#SVGID_31_);}
	.st36{fill:url(#SVGID_32_);}
	.st37{fill:url(#SVGID_33_);}
	.st38{fill:url(#SVGID_34_);}
	.st39{fill:url(#SVGID_35_);}
	.st40{fill:url(#SVGID_36_);}
	.st41{fill:url(#SVGID_37_);}
	.st42{fill:url(#SVGID_38_);}
	.st43{fill:url(#SVGID_39_);}
	.st44{fill:url(#SVGID_40_);}
	.st45{fill:url(#SVGID_41_);}
	.st46{fill:url(#SVGID_42_);}
	.st47{fill:url(#SVGID_43_);}
	.st48{fill:url(#SVGID_44_);}
	.st49{fill:url(#SVGID_45_);}
	.st50{fill:url(#SVGID_46_);}
	.st51{fill:url(#SVGID_47_);}
	.st52{fill:url(#SVGID_48_);}
	.st53{fill:url(#SVGID_49_);}
	.st54{fill:url(#SVGID_50_);}
	.st55{fill:url(#SVGID_51_);}
	.st56{fill:url(#SVGID_52_);}
	.st57{fill:url(#SVGID_53_);}
	.st58{fill:url(#SVGID_54_);}
	.st59{fill:url(#SVGID_55_);}
	.st60{fill:url(#SVGID_56_);}
	.st61{fill:url(#SVGID_57_);}
	.st62{fill:url(#SVGID_58_);}
	.st63{fill:url(#SVGID_59_);}
	.st64{fill:url(#SVGID_60_);}
	.st65{fill:url(#SVGID_61_);}
	.st66{fill:url(#SVGID_62_);}
	.st67{fill:url(#SVGID_63_);}
	.st68{fill:url(#SVGID_64_);}
	.st69{fill:url(#SVGID_65_);}
	.st70{fill:url(#SVGID_66_);}
	.st71{fill:url(#SVGID_67_);}
	.st72{fill:url(#SVGID_68_);}
	.st73{fill:url(#SVGID_69_);}
	.st74{fill:url(#SVGID_70_);}
	.st75{fill:url(#SVGID_71_);}
	.st76{fill:url(#SVGID_72_);}
	.st77{fill:url(#SVGID_73_);}
	.st78{fill:url(#SVGID_74_);}
</style>
<g>
	<path class="st0" d="M1150,397c-3,1.2-5.9,2.5-8.9,3.9c-34.7,16.1-71,41.8-109.6,81.5c-0.3,0.3-0.5,0.5-0.8,0.8
		c-1.7,1.8-3.5,3.5-5.2,5.2c-67.3,65.1-137.7,49.4-212.4,0c-3-2-5.9-4-8.9-6c-38.5-26.7-78.3-61.8-119.3-99c-2.2-2-4.4-4-6.7-6
		c90.2,6.9,145.8-13.2,199.2-1.4c92.1,20.4,93.5,68,202.8,28.2C1109.9,393.4,1132,392.8,1150,397z"/>
	<path class="st0" d="M1487.7,338c24.2,13.2,47.2,19.8,69.3,22.4c-2.8,1.4-5.6,2.8-8.4,4.4c-0.1,0.1-0.3,0.1-0.4,0.2
		c-83.3,44.5-99.6,39.5-170.8,27.5c-14.7-2.5-29.3-5.1-43.9-7.5c-1.1-0.2-2.2-0.4-3.4-0.5C1362.5,337,1383.8,281.6,1487.7,338z"/>
	<path class="st0" d="M3015.9,370.2c-6.4,2.3-12.8,4.5-19,6.7c-274.6,93.5-395.1,20.6-508.4,45.3c-84.5,18.4-116.3,52.4-168.5,60.3
		c-14,2.1-29.5,2.4-47.9,0c-21.2-2.8-46.2-9.1-77.3-20.2c-85.5-30.6-127.2-3.7-166.7,20.2c-3.4,2-6.7,4-10.1,6
		c-30.2,17.5-61.3,30.2-111.9,10.8c-7.7-3-14.8-6.6-21.4-10.8c-3-1.9-5.8-3.9-8.6-6c-46.3-35.5-84.1-100.6-142.4-132.4
		c-3.5-1.9-7.2-3.7-10.8-5.4c49.6-1.8,101.3,11.6,161.2,74.4c151.4,158.8,324.9-295.7,552.6-215.6
		c133.8,47.1,328.7,151.7,505.3,166.4C2967,371.9,2991.8,372.1,3015.9,370.2z"/>
	<path class="st1" d="M3112.9,347.5v5.6c-36.5,15.1-75.5,22.3-116,23.7c-18.1,0.6-36.4,0.1-55-1.5
		c-176.5-14.7-371.5-119.3-505.3-166.4c-227.7-80.2-401.2,374.3-552.6,215.6c-55.5-58.2-104-74-150.3-74.5
		c-61.7-0.7-119.7,25.6-185.2,14.8c-19.5-3.2-39.7-9.7-60.9-21.2c-100.3-54.5-123.6-4.8-154.2,41.4c-9.7,14.7-20.1,29-34,39.5
		c-5.9,4.5-12.4,8.3-19.8,11.2c-49.2,19.2-71.7-6.3-103.4-23.1c-10.3-5.5-21.6-10-35.1-11.8c-16.3-2.1-35.8-0.3-60.8,8.8
		c-109.3,39.8-110.7-7.8-202.8-28.2c-52-11.5-106.3,7.3-192.5,1.8c-2.2-2-4.4-4-6.7-6c90.2,6.9,145.8-13.2,199.2-1.4
		c92.1,20.4,93.5,68,202.8,28.2c29.7-10.8,51.7-11.4,69.7-7.2c33.4-14,65.4-19.4,96.8-19.9c28.2-0.5,55.8,2.9,83.3,7.4
		c32.4-47.5,53.7-102.9,157.6-46.4c24.2,13.2,47.2,19.8,69.3,22.4c72-36.2,124.2-34.8,165.9-15.9c49.6-1.8,101.3,11.6,161.2,74.4
		c151.4,158.8,324.9-295.7,552.6-215.6c133.8,47.1,328.7,151.7,505.3,166.4c25.1,2.1,49.9,2.3,74,0.4
		C3049.6,367.4,3082.1,360.2,3112.9,347.5z"/>
	<path class="st2" d="M3112.9-81.7v429.2c-30.8,12.7-63.3,19.8-97,22.6c-24.1,2-48.9,1.7-74-0.4
		c-176.5-14.7-371.5-119.3-505.3-166.4c-227.7-80.2-401.2,374.3-552.6,215.6c-59.8-62.7-111.5-76.2-161.2-74.4
		c-55.1,2-107.6,22.8-165.9,15.9c-22.1-2.6-45.1-9.3-69.3-22.4c-103.9-56.4-125.2-1.1-157.6,46.4c-8.8,12.9-18.4,25.2-30.6,34.5
		c-5.9,4.5-12.4,8.3-19.8,11.2c-49.2,19.2-71.7-6.3-103.4-23.1c-8-4.2-16.5-7.9-26.2-10.1c-18-4.2-40.1-3.6-69.7,7.2
		C971,444,969.5,396.4,877.5,376c-53.4-11.8-109,8.2-199.2,1.4c-30.5-2.3-64.8-7.7-104.4-18.4c-45.4-12.3-97.6-31.6-158.5-61.4
		C357.5,269.2,301,253,248.1,245l0,0c-80.5-12.2-153-5.3-210.3,6.9c-15.6,3.3-30.2,7.1-43.4,10.9V-81.7H3112.9z"/>
</g>
<g class="st3">
	<g class="st4">
		<g>
			<g>
				
					<linearGradient id="SVGID_1_" gradientUnits="userSpaceOnUse" x1="-88.6287" y1="158.8907" x2="1040.5591" y2="265.8214" gradientTransform="matrix(1 0 0 1 0 -214.6142)">
					<stop  offset="0" style="stop-color:#636363"/>
					<stop  offset="1" style="stop-color:#000000"/>
				</linearGradient>
				<path class="st5" d="M236-41.6l38.6-0.9l-4.3,3.5c-1.4,0.2-3.3,0.9-5.8,2s-3.9,2.2-5,3.1c-0.4,0.4-1,1.3-1.7,2.4l22.7-0.5
					l-3.7,3.5l-4.7,1.6c-1.9,0.9-3.1,1.5-3.5,1.8c-5.4,3.3-8.7,8.6-9.9,15.8l-7.8,5.1c-3.1-3.3-5.2-5.8-6.4-7.3
					c-0.4-0.5-2.5-4-6.6-10.2c-1,1.1-1.7,2.2-2.1,3.1c1.2,0.7,2.7,2.2,3.9,4.2s2.1,3.8,2.3,5.3c0,0.7,0.2,1.3,0.2,1.6
					c0,2.2-0.6,4-1.9,5.5c-1.2,1.5-3.1,2.2-5.6,2.4c-1.7,0-3.1-0.5-4.5-1.5c-1.2-1.1-1.9-2.4-2.1-3.8c0-2.4,1.4-3.8,4.3-4.4
					c-0.8-2.7-2.9-5.1-6.6-6.7c1.9-3.6,4.3-6.6,7.4-8.7l-14.4,0.4l6.6-6.2l24.1-0.5c1.2-1.8,2.7-3.3,4.1-4.6l-34.5,0.9l5-5.6
					l4.7-0.4l-0.2-3.5l6.6-6.4L236-41.6z M246.1-25.4c2.1,3.1,4.1,6.2,6.6,8.9c2.3-3.6,5-6.7,8.3-9.3L246.1-25.4z"/>
			</g>
			<g>
				
					<linearGradient id="SVGID_2_" gradientUnits="userSpaceOnUse" x1="-97.4385" y1="251.921" x2="1031.7499" y2="358.8517" gradientTransform="matrix(1 0 0 1 0 -214.6142)">
					<stop  offset="0" style="stop-color:#636363"/>
					<stop  offset="1" style="stop-color:#000000"/>
				</linearGradient>
				<path class="st6" d="M193.5,73.9c-1.4,2.9-3.7,5.1-6.8,6.9s-6.2,2.6-9.7,2.4c-5.8-0.2-11.6-3.5-16.7-10c-3.3-4-5.8-8-7.2-11.8
					c-1.2-3.3-2.5-7.7-3.1-13.1l6.4,2.4c1,7.5,4.3,13.8,9.9,18.8c3.1,2.9,6.4,4.2,9.9,4.2c3.3,0,6.4-1.1,9.1-3.1
					c2.7-2,4.1-4.6,3.9-7.3c-0.2-4.2-1.2-7.1-2.7-8.6c-0.8-0.7-2.1-1.6-4.1-2.4c0.4,0.9,0.6,1.8,0.6,2.7c0,2.2-0.8,4-2.7,5.6
					s-3.9,2.4-6.4,2.4c-2.7,0-4.7-0.9-6.6-2.7c-1.9-1.8-2.7-4-2.7-6.4c0-1.8,0.6-3.6,1.7-5.5c1-1.8,2.5-3.1,4.3-3.8
					c1.2-0.5,3.1-0.9,6-1.1c3.3-0.2,6.8,0.7,10.1,3.1c3.1,2,5.4,4.6,6.8,7.5c1.7,3.1,2.5,6.4,2.5,9.8
					C195.7,66.6,194.9,70.1,193.5,73.9z"/>
			</g>
			<g>
				
					<linearGradient id="SVGID_3_" gradientUnits="userSpaceOnUse" x1="-85.8864" y1="129.9314" x2="1043.3014" y2="236.8621" gradientTransform="matrix(1 0 0 1 0 -214.6142)">
					<stop  offset="0" style="stop-color:#636363"/>
					<stop  offset="1" style="stop-color:#000000"/>
				</linearGradient>
				<path class="st7" d="M371.8-39.8c-1.2,2.7-3.1,4-6,4c-1.7,0-3.3-0.5-4.5-1.6s-1.9-2.4-1.9-4c0-1.8,0.6-3.3,1.9-4.6
					c1.2-1.3,2.7-2,4.7-2c1.7,0,3.3,0.5,4.5,1.6s1.9,2.4,1.9,4C372.4-41.4,372.2-40.7,371.8-39.8z"/>
			</g>
			<g>
				
					<linearGradient id="SVGID_4_" gradientUnits="userSpaceOnUse" x1="-86.0083" y1="131.2192" x2="1043.1794" y2="238.1498" gradientTransform="matrix(1 0 0 1 0 -214.6142)">
					<stop  offset="0" style="stop-color:#636363"/>
					<stop  offset="1" style="stop-color:#000000"/>
				</linearGradient>
				<path class="st8" d="M450.9-42.5c2.7-3.5,7-8,12.8-13.7c0,2.2,0.2,3.5,0,3.6c0,1.6-0.2,2.7-0.6,3.3c-0.8,1.3-1,2.4-0.8,3.3
					l0.4,1.5l1.2,0.9l0.6,8.6l-7.4-5.6L425.7-9l-0.6-9.1L441.8-35c2.1-2,3.1-4.7,3.3-7.8s-0.8-5.5-3.1-7.3c-1.4-1.1-3.3-1.6-5.6-1.3
					c-2.3,0.4-3.9,1.3-5.4,2.6c-1.2,1.3-1.9,2.9-1.7,4.7l0.6-0.7c2.1-2.2,4.5-2.2,7.2-0.2c1.4,1.1,2.1,2.4,2.3,4
					c0.2,1.6-0.4,3.1-1.7,4.2c-1.4,1.5-3.3,2.2-5.6,2c-2.3-0.2-4.3-0.9-6-2.2c-3.1-2.4-4.5-5.5-4.5-9.3c0-2.9,1.2-5.6,3.7-8.2
					c3.1-3.1,6.6-4.7,10.7-5.1c4.1-0.4,7.8,0.7,11.4,3.5c1.4,1.1,2.7,2.9,3.5,5.5C451.7-47.8,451.5-45.2,450.9-42.5z"/>
			</g>
			<g>
				
					<linearGradient id="SVGID_5_" gradientUnits="userSpaceOnUse" x1="-96.4699" y1="241.6933" x2="1032.7181" y2="348.6241" gradientTransform="matrix(1 0 0 1 0 -214.6142)">
					<stop  offset="0" style="stop-color:#636363"/>
					<stop  offset="1" style="stop-color:#000000"/>
				</linearGradient>
				<path class="st9" d="M230.3,48.1c0.6,0.2,3.1-0.5,7.6-2.2c1.4-0.5,4.1-1.5,8.3-2.7c4.1-1.3,8.5-1.5,12.8-0.5
					c4.3,0.9,7.8,2.9,10.9,6c2.9,2.9,3.7,7.3,2.1,12.9c-1.4,5.1-4.1,8.7-7.8,10.9l-4.5-8c-0.4-0.5-0.6-0.9-0.8-1.3
					c-1.7-2-4.7-3.1-9.1-3.3c-0.4,0-1.2,0.4-2.7,1.1c-0.8,0.5-1,1.8-0.6,3.6c0.4,1.6,1,2.9,1.7,3.6c0.6,0.7,1.2,1.1,1.9,1.1
					c2.9-2.4,5.6-2.2,7.8,0.5c1,1.1,1.4,2.4,1.4,3.6c0,1.5-0.6,2.6-1.9,3.5c-2.3,1.5-4.7,1.8-7.4,1.1c-2.5-0.5-4.5-2-6.4-4
					c-2.5-2.7-3.7-6-3.5-9.7c0-4,1.4-6.9,4.5-9.1c2.9-2,6.4-2.6,10.3-2c3.9,0.7,7,2.4,9.3,4.9c0.2,0.2,0.4,0.4,0.6,0.5l0.6-2
					c0.4-1.5,0-2.7-1-4.2c-1.9-2.4-4.7-3.1-8.7-2.7l-13.4,3.5c-3.5,0.9-7.2,1.5-10.9,1.3c-4.7,0-8.1-1.3-10.1-3.5
					c-0.2-0.4-0.6-0.7-0.8-1.1c-1.7-3.3-1.2-5.5,1-7.1c1.2-0.9,2.7-1.1,4.1-0.9c1.4,0.2,2.7,0.9,3.7,2
					C230.5,45.9,230.7,47,230.3,48.1z"/>
			</g>
			<g>
				
					<linearGradient id="SVGID_6_" gradientUnits="userSpaceOnUse" x1="-91.5589" y1="189.8324" x2="1037.6292" y2="296.7632" gradientTransform="matrix(1 0 0 1 0 -214.6142)">
					<stop  offset="0" style="stop-color:#636363"/>
					<stop  offset="1" style="stop-color:#000000"/>
				</linearGradient>
				<path class="st10" d="M320.2,3.8l-6.8-6h55.1l7.2,6H320.2z M361.1,35.3c-3.5,1.8-7,2.7-10.3,2.7c-6.4,0-12-2.9-16.7-8.6
					c-2.7-3.1-4.5-5.8-5.4-7.8c-2.7-6-5.2-12-7.2-18.2l5.2,1.8c1.7,3.6,3.1,6.4,4.1,8.6c1.9,3.5,3.5,6.2,5.2,8
					c3.9,4.9,9.1,7.5,15.1,7.5c2.7,0,5.6-1.1,8.5-3.3c2.3-1.6,3.3-3.5,3.3-5.6c0-1.6-0.6-3.3-1.9-4.9c-1.2-1.8-2.9-2.7-4.7-2.7
					c-0.2,0-0.6,0-1.2,0.2c0.8,1.1,1,2.4,1,3.8c0,4.4-2.7,6.6-8.3,6.6c-2.7,0-5-0.9-6.4-2.6c-1.7-1.6-2.3-3.6-2.3-6.2
					c0-2.7,1.2-5.1,3.5-6.7c2.3-1.8,5.2-2.6,8.3-2.6c1,0,2.5,0.2,4.3,0.5c6.2,1.3,10.3,5.3,12.8,12c0.6,1.8,1,3.6,1,5.3
					C368.9,28.5,366.2,32.6,361.1,35.3z"/>
			</g>
			<g>
				
					<linearGradient id="SVGID_7_" gradientUnits="userSpaceOnUse" x1="-99.1623" y1="270.1253" x2="1030.0258" y2="377.056" gradientTransform="matrix(1 0 0 1 0 -214.6142)">
					<stop  offset="0" style="stop-color:#636363"/>
					<stop  offset="1" style="stop-color:#000000"/>
				</linearGradient>
				<path class="st11" d="M9.6,55.4l-6.8-6h55.1l7.2,6H9.6z M50.5,86.9c-3.5,1.8-7,2.7-10.3,2.7c-6.4,0-12-2.9-16.7-8.6
					c-2.7-3.1-4.5-5.8-5.4-7.8c-2.7-6-5.2-12-7.2-18.2l5.2,1.8c1.7,3.6,3.1,6.4,4.1,8.6c1.9,3.5,3.5,6.2,5.2,8
					c3.9,4.9,9.1,7.5,15.1,7.5c2.7,0,5.6-1.1,8.5-3.3c2.3-1.6,3.3-3.5,3.3-5.6c0-1.6-0.6-3.3-1.9-4.9c-1.2-1.8-2.9-2.7-4.7-2.7
					c-0.2,0-0.6,0-1.2,0.2c0.8,1.1,1,2.4,1,3.8c0,4.4-2.7,6.6-8.3,6.6c-2.7,0-5-0.9-6.4-2.6c-1.7-1.6-2.3-3.6-2.3-6.2
					c0-2.7,1.2-5.1,3.5-6.7c2.3-1.8,5.2-2.6,8.3-2.6c1,0,2.5,0.2,4.3,0.5c6.2,1.3,10.3,5.3,12.8,12c0.6,1.8,1,3.6,1,5.3
					C58.3,80.2,55.7,84.2,50.5,86.9z"/>
			</g>
			<g>
				
					<linearGradient id="SVGID_8_" gradientUnits="userSpaceOnUse" x1="-95.5798" y1="232.2943" x2="1033.6082" y2="339.225" gradientTransform="matrix(1 0 0 1 0 -214.6142)">
					<stop  offset="0" style="stop-color:#636363"/>
					<stop  offset="1" style="stop-color:#000000"/>
				</linearGradient>
				<path class="st12" d="M422.8,56.1l-6.2,12.2c3.3,0.4,6.4-0.5,9.5-2.4c0.8-0.5,2.1-1.1,3.7-1.6c2.1,2.2,3.3,4.7,3.7,8
					c0.4,3.1-0.2,6-1.7,8.7c-1,2-2.5,4-4.5,6c-2.5,2.4-5.2,3.8-8.7,4.2c-3.3,0.4-6.8,0-10.1-1.5c-4.7-1.8-8.1-4.7-9.5-8.6
					c-0.8-2-1.4-5.5-1.9-10.2c0.2-5.6,1-10.7,2.7-15.5c0.2-0.5,1.2-3.1,2.9-7.7l3.5,4c-1.2,3.1-2.1,6.4-2.5,9.8
					c-0.6,4-0.4,7.3,0.4,10s1.2,4.2,1.4,4.4c1,2.2,3.1,3.8,6.4,5.1c2.7,1.1,5.6,1.3,8.5,0.7c2.9-0.5,5.2-2,6.6-4.2
					c0.8-1.1,1-2.6,0.6-4c-2.7,1.5-5.8,2.2-9.1,2.6c-2.3,0.2-4.1,0-5.8-0.5c-3.3-1.3-4.5-4-3.9-8.2c0.2-0.5,2.7-5.3,7-14.2L400.1,47
					l-3.5-8L443,57.2l3.5,7.8L422.8,56.1z"/>
			</g>
			<g>
				
					<linearGradient id="SVGID_9_" gradientUnits="userSpaceOnUse" x1="-92.3525" y1="198.2146" x2="1036.8354" y2="305.1451" gradientTransform="matrix(1 0 0 1 0 -214.6142)">
					<stop  offset="0" style="stop-color:#636363"/>
					<stop  offset="1" style="stop-color:#000000"/>
				</linearGradient>
				<path class="st13" d="M487.8,20v43.7l-4.5-5.8c-4.5-9.7-12.2-14.9-22.9-15.7l-6.8-8.6c9.1-5.8,18.4-10,27.5-12.8v-1.1h-28.7
					l-6.6-6h45.4l6.8,6h-10.1L487.8,20L487.8,20z M481,29.6c-4.3,1.5-9.1,3.6-14,6.4c5.6,2.4,10.3,5.8,14,10V29.6z"/>
			</g>
			<g>
				
					<linearGradient id="SVGID_10_" gradientUnits="userSpaceOnUse" x1="-91.6776" y1="191.0871" x2="1037.5104" y2="298.0179" gradientTransform="matrix(1 0 0 1 0 -214.6142)">
					<stop  offset="0" style="stop-color:#636363"/>
					<stop  offset="1" style="stop-color:#000000"/>
				</linearGradient>
				<path class="st14" d="M570.6,26.7l28.9,33.5l-4.7-0.7c-0.6-0.2-1.7-0.7-2.9-1.3c-5-2.7-9.5-4-13.8-3.5
					c-5.4,0.5-9.9,1.8-13.8,3.8l-15.5-3.3c3.1-1.3,5.2-2.2,6.2-2.7c1.9-1.3,3.5-2.7,5-4.6c1.7-2,2.7-4,2.9-5.8
					c0.2-1.3,0-2.4-0.6-3.1c-0.4-0.5-1.4-0.9-2.5-1.3l-0.4,2.6c-0.4,1.6-1.4,3.5-2.9,5.5c-1.4,2-2.7,3.5-4.3,4.4
					c-1.7,1.1-3.5,1.6-5.6,1.5c-2.1-0.2-3.7-0.9-5-2.4c-1-1.3-1.4-2.6-1.2-4s1-2.7,2.3-3.6c2.3-1.5,4.3-1.5,6.4,0l0.6-1.1
					c0.4-0.9,1-3.6,1.9-8.6c5.2,0.2,8.1,0.4,9.1,0.5c3.7,0.5,6.2,1.8,7.8,3.6c3.1,3.6,3.3,7.8,0.4,12.9c4.5-0.5,8.9-0.2,13,0.7
					l-26.4-30.8l5.8-0.5c0.2,0.5,0.8,1.1,1.7,1.8c0.8,0.9,1.7,1.5,2.1,1.6c0.4,0,1.2-0.4,2.7-1.1L577,22L570.6,26.7z"/>
			</g>
			<g>
				
					<linearGradient id="SVGID_11_" gradientUnits="userSpaceOnUse" x1="-85.5257" y1="126.1228" x2="1043.6624" y2="233.0534" gradientTransform="matrix(1 0 0 1 0 -214.6142)">
					<stop  offset="0" style="stop-color:#636363"/>
					<stop  offset="1" style="stop-color:#000000"/>
				</linearGradient>
				<path class="st15" d="M556.1-42.1v36.6l-4.3-3.8l-1.9-4.7c-1.2-2.6-3.3-4.7-6-6.4v19.7l-4.1-3.8c-1.2-2.6-1.9-4-2.1-4.2
					c-0.4-1.1-1.4-2.4-2.7-3.8c-4.3-5.1-9.9-7.8-16.7-8.4l-7.2-7.8c8.3-5.5,17.1-9.8,26.2-12.9V-42h-27.5l-6.8-6h40.7v20.9
					c2.1,1.3,3.7,2.7,5.2,4.4v-33.9l4.3,3.1l0.6,3.1c0,0.5,0.2,1.1,0.6,1.8c0.8,0.4,1.4,0.5,2.3,0.5c0.4,0,0.8,0,1.4,0l6.8,6
					L556.1-42.1L556.1-42.1z M537.4-33.4c-4.1,1.5-8.5,3.5-12.6,6c5,2.4,9.3,5.6,12.6,10V-33.4z"/>
			</g>
			<g>
				
					<linearGradient id="SVGID_12_" gradientUnits="userSpaceOnUse" x1="-101.1674" y1="291.2991" x2="1028.0208" y2="398.2299" gradientTransform="matrix(1 0 0 1 0 -214.6142)">
					<stop  offset="0" style="stop-color:#636363"/>
					<stop  offset="1" style="stop-color:#000000"/>
				</linearGradient>
				<path class="st16" d="M379,104.3v41.9l-3.7-3.1l-4.7-7.8c-2.1-2.6-4.7-4.7-8.1-6.4c-3.5-1.6-7-2.6-10.7-2.7l-6.8-8.4
					c9.3-5.8,18.4-10,27.5-12.6v-0.9h-27l-7-6H381l7,6C388,104.3,379,104.3,379,104.3z M360.7,141.5c-1.7,0-2.9-0.5-4.1-1.6
					s-1.9-2.2-1.9-3.6c0-1.3,0.6-2.6,1.7-3.5c1-1.1,2.3-1.5,3.9-1.5c1.7,0,2.9,0.5,4.1,1.5c1.2,1.1,1.9,2.2,1.9,3.6
					c0,1.3-0.6,2.6-1.7,3.6C363.6,141.1,362.3,141.5,360.7,141.5z M372.4,113.2c-4.5,1.5-9.3,3.6-14.2,6.6
					c5.6,2.4,10.3,5.8,14.2,10.7V113.2z"/>
			</g>
			<g>
				
					<linearGradient id="SVGID_13_" gradientUnits="userSpaceOnUse" x1="-109.4339" y1="378.5927" x2="1019.7542" y2="485.5233" gradientTransform="matrix(1 0 0 1 0 -214.6142)">
					<stop  offset="0" style="stop-color:#636363"/>
					<stop  offset="1" style="stop-color:#000000"/>
				</linearGradient>
				<path class="st17" d="M384.4,210.3v1.3c0,2.9,0.8,5.1,2.7,6.7c0.8,0.7,2.3,1.3,4.3,1.6c2.1,0.4,3.9,0.5,5.2,0.4
					c2.7-0.4,5.2-0.5,7-0.5c4.5,0,8.3,0.7,10.9,2.4l1,0.9v-27c0,0,0,0-0.2,0c-1.4,0-3.5,0.7-5.8,2.2c-1.9,1.3-3.5,2.6-4.7,3.8
					c-0.8,0.9-1.2,1.8-1.7,2.9c0.2,0,0.6,0,0.8,0c1.7,0,2.9,0.5,3.7,1.6s1.4,2.4,1.4,3.8c0,1.3-0.4,2.6-1.4,3.6
					c-1,1.1-2.1,1.8-3.5,2c-0.8,0.2-1.7,0.2-2.3,0.2c-3.7,0-6.2-1.3-7.6-4c-0.8-1.3-1-2.7-1-4.2c0-2.7,1-5.5,3.3-8.6
					c2.1-2.7,4.3-4.9,7.2-6.7c3.5-2.2,6.8-3.3,10.1-3.1c1.7,0,3.5,0.9,5.6,2.6c2.1,1.6,3.1,3.3,3.1,4.6v41.5c-1.2-1.1-2.7-2-3.9-3.1
					c-0.6-0.7-1.2-1.8-1.7-3.5c-0.8-3.3-3.3-4.9-6.8-4.9c-1.2,0-3.5,0.2-7.2,0.7c-2.5,0.4-4.5,0.5-6.2,0.5c-7.4,0-12.6-2.4-15.3-7.1
					c-1.4-2.6-2.3-5.5-2.3-8.7c0-3.3,1.2-6.9,3.5-10.4c0.2-0.2,0.4-0.5,0.8-0.7c0.2-0.2,0.4-0.2,0.8-0.2c0.2,0,0.4,0.2,0.8,0.4
					l2.3,2.2C385.6,205.6,384.8,207.8,384.4,210.3z"/>
			</g>
			<g>
				
					<linearGradient id="SVGID_14_" gradientUnits="userSpaceOnUse" x1="-102.2598" y1="302.8356" x2="1026.928" y2="409.7663" gradientTransform="matrix(1 0 0 1 0 -214.6142)">
					<stop  offset="0" style="stop-color:#636363"/>
					<stop  offset="1" style="stop-color:#000000"/>
				</linearGradient>
				<path class="st18" d="M449.8,129.5c-1-0.5-2.1-1.5-3.1-2.6l-0.8-1.8l-6.4-5.6h46.2l7,6.2h-9.1v42.4l-4.1-4l-1.9-5.1
					c-0.8-2-1.9-3.5-3.1-4.6c-2.5-2-4.3-3.3-5.8-3.8c-2.7,2.4-5.4,3.5-8.3,3.5s-5-0.7-6.4-2c-0.8-0.9-1.4-1.5-1.4-1.8
					c-0.6-1.5-0.8-2.7-0.8-3.8c0-2.6,1-4.6,3.1-6c1.9-1.3,4.3-2,7.2-2c0.8,0,1.4,0,2.1,0.2c-0.4-2.4-1.4-4-3.3-5.3
					c-1.4-1.1-3.7-1.8-6.6-2.6C452.3,130.6,450.9,130,449.8,129.5z M477.1,125.6h-16.9c1.2,0.9,2.7,2.2,4.5,3.5
					c3.1,2.7,5.4,6.6,6.6,11.7c0.2,0.9,0.2,2,0.2,3.3c1.2,1.1,3.1,2.7,5.4,5.1v-23.5h0.2L477.1,125.6L477.1,125.6z"/>
			</g>
			<g>
				
					<linearGradient id="SVGID_15_" gradientUnits="userSpaceOnUse" x1="-108.7961" y1="371.8574" x2="1020.3923" y2="478.7881" gradientTransform="matrix(1 0 0 1 0 -214.6142)">
					<stop  offset="0" style="stop-color:#636363"/>
					<stop  offset="1" style="stop-color:#000000"/>
				</linearGradient>
				<path class="st19" d="M232.7,189.9c-1.9,1.3-3.7,1.8-5.4,1.8c-4.7,0-7.2-2.2-7.2-6.6c0-5.6,3.1-8.6,9.5-8.6
					c3.3,0,6.2,1.1,8.3,3.1c2.3,2,3.3,4.6,3.3,7.5c0,4.6-3.7,9.1-11.1,13.3l-0.2,0.2h18.6v-26.8l6.8-6v41l-6.8,6.2v-8.4H199l5.4-3.5
					c0.4,0,0.8,0,1.4,0c5.2,0,11.4-1.6,19-4.7c1.7-0.7,3.3-2,5.2-3.6C231.5,193.2,232.5,191.6,232.7,189.9z"/>
			</g>
			<g>
				
					<linearGradient id="SVGID_16_" gradientUnits="userSpaceOnUse" x1="-89.8629" y1="171.9234" x2="1039.3252" y2="278.8541" gradientTransform="matrix(1 0 0 1 0 -214.6142)">
					<stop  offset="0" style="stop-color:#636363"/>
					<stop  offset="1" style="stop-color:#000000"/>
				</linearGradient>
				<path class="st20" d="M174.3-25.2c-1.4,1.5-2.7,2.4-3.9,2.7c-0.8,0.2-2.1,0.4-3.7,0.4c-3.1,0-5.8-1.1-8.1-3.1s-3.5-4.6-3.5-7.3
					c0-2.6,1-4.9,3.3-7.1c2.3-2.2,4.7-3.1,7.8-3.1s5.8,1.1,7.8,3.1c2.3,2.2,3.3,4.6,3.3,7.3S176.3-27.4,174.3-25.2z M178,1.6
					c-3.5-2.9-10.3-7.5-20-13.5v-11.7c3.7,2.6,7.8,5.8,12.2,9.5c2.5,2,7.6,7.3,15.3,15.8v6L178,1.6z M169.3-36.5
					c-1.2-0.2-3.1,0.5-5.4,2.2c-1.2,0.9-1.9,2.4-1.9,4.2c0,1.3,0.4,2,1.4,2s2.3-0.4,3.7-1.3c1.7-0.9,2.5-1.6,2.9-2.6
					c0.2-0.5,0.4-1.3,0.4-2.4C170.6-35.6,170.2-36.3,169.3-36.5z"/>
			</g>
			<g>
				
					<linearGradient id="SVGID_17_" gradientUnits="userSpaceOnUse" x1="-104.0455" y1="321.6921" x2="1025.1425" y2="428.6227" gradientTransform="matrix(1 0 0 1 0 -214.6142)">
					<stop  offset="0" style="stop-color:#636363"/>
					<stop  offset="1" style="stop-color:#000000"/>
				</linearGradient>
				<path class="st21" d="M89.9,140.2l-47.1-7.3l5-2.9c11.6-2.7,18.2-8.4,20-16.8l10.1-4.7c3.7,5.1,6.8,9.5,8.9,13.1
					c0.6-0.9,1.2-2.6,1.7-4.9c0.4-2.4,1-4,1.7-4.7c1-1.3,2.7-2,5-2.4c0.2,0,0.6-0.2,1.2-0.5c0.2-0.2,0.4-0.4,0.8-0.5l0.8-0.5l6-3.6
					l-7.6,38.4l-7.8,4.7L89.9,140.2z M72.7,131.5c1.7-1.1,3.3-2.2,5-2.9c1-0.5,1.7-0.9,1.7-0.9c-0.6-1.6-2.5-4.2-5.4-7.7
					c-3.3,4-7.4,7.3-12.4,9.8L72.7,131.5z M90.9,134.4l2.3-11.1c-3.1,2.7-5.8,4.6-8.1,5.6c-1.2,1.1-2.9,2.4-4.7,4L90.9,134.4z"/>
			</g>
			<g>
				
					<linearGradient id="SVGID_18_" gradientUnits="userSpaceOnUse" x1="-91.4061" y1="188.2188" x2="1037.7823" y2="295.1494" gradientTransform="matrix(1 0 0 1 0 -214.6142)">
					<stop  offset="0" style="stop-color:#636363"/>
					<stop  offset="1" style="stop-color:#000000"/>
				</linearGradient>
				<path class="st22" d="M76.9-24.3H61.2l-6.8-6h57.8l6.8,6H91.7c-0.6,0.2-1.2,0.5-2.3,1.3c-0.2,0.2-0.2,0.4-0.2,0.4
					c0,0.5,1.2,1.3,3.7,2c2.3,0.5,3.7,0.9,4.7,0.9c1.2,0,2.9-0.4,5.2-0.9l4.5-1.3c2.3,2,5,4.4,8.3,7.3c-4.7,4-7.2,8.4-7.6,13.3
					l-0.4,4.9c0,2.9,1,6.6,3.3,10.9c0,0.9-0.4,1.3-1.4,1.3c-0.6,0-1.7-0.2-3.1-0.7c-1.4-0.4-2.1-0.9-2.3-1.3l-2.3-8.2
					c-0.8-2.9-1.2-5.6-1.2-8.2c0-3.3,0.6-6.9,2.1-10.7c-6.8-0.2-12-1.5-15.3-4c-0.2-0.2-1.4-1.5-3.5-3.8c-1,0.4-2.3,1.5-3.7,3.6
					c-1.4,2.2-2.3,3.6-2.3,4.6c0,1.1,0.6,1.6,2.1,1.6c0.8,0,3.1-0.9,7-2.6c1-0.4,1.9-0.7,2.7-1.1c0.6,0,1,0.2,1.4,0.5h-0.2
					c0.8,0.4,1.9,1.1,2.9,2.4c2.9,3.1,4.3,6.2,4.3,9.3c0,3.3-1.2,6.2-3.9,8.4c-2.7,2.4-5.8,3.5-9.5,3.5c-5.6,0-10.5-2.4-14.4-7.1
					c-3.7-4.4-6-9.8-6.6-16.4c-0.2-2.6-0.4-5.1-0.4-7.8c0-1.1,0.4-1.6,1-1.6c0.2,0,0.4,0.2,0.8,0.4c1.4,0.7,2.5,1.3,3.1,1.6
					C68-17.4,68.8-13,70.9-8.6c1.4,3.3,4.1,5.8,7.6,7.8c1.7,0.9,3.3,1.3,5,1.3c1.9-0.2,3.7-0.5,5.6-1.3c2.5-0.9,3.7-2,3.7-3.5
					c0-0.5-0.2-0.9-0.6-1.5c-0.2-0.5-0.4-0.7-0.8-0.7c-0.2,0-0.4,0-0.6,0.2c-3.1,1.1-5.6,1.8-7.6,1.8c-1.7,0-3.5-0.4-5.2-1.1
					c-4.3-2.6-6.4-5.8-6.4-10.2c0-2.2,1.4-5.1,4.1-8.4L76.9-24.3z"/>
			</g>
			<g>
				
					<linearGradient id="SVGID_19_" gradientUnits="userSpaceOnUse" x1="-98.3487" y1="261.5333" x2="1030.8394" y2="368.464" gradientTransform="matrix(1 0 0 1 0 -214.6142)">
					<stop  offset="0" style="stop-color:#636363"/>
					<stop  offset="1" style="stop-color:#000000"/>
				</linearGradient>
				<path class="st23" d="M87,87c-4.3,0.4-8.5-0.5-12-2.7c-3.9-2.4-6-5.5-6-9.3c0-0.9,0.2-1.6,0.4-2.2c1.4-3.8,4.1-6.4,7.6-7.7
					c-4.3-2-6.6-5.1-6.6-9.7c0-4,1.9-7.3,5.6-10c3.5-2.4,7.6-3.6,12.4-3.6c3.7,0,7,0.9,9.9,2.9c3.1,2.2,4.5,4.9,4.5,8
					c0,1.6-0.6,3.5-1.9,5.3c-1.2,1.8-2.7,3.3-4.5,4.4c5.2,2.2,7.8,6.2,8.1,11.8c0.2,3.8-1.7,6.9-5.6,9.3C95.6,85.6,91.7,86.7,87,87z
					 M91.7,70.4c-2.5-1.6-4.5-2.6-6-2.6c-2.3,1.5-3.9,2.6-4.5,3.1c-1.7,1.5-2.5,2.9-2.5,4.4c0,0.7,0.2,1.6,0.8,2.4
					c1.4,2,3.9,3.1,7.4,3.1c4.7,0,7.8-1.8,9.1-5.3C95.6,73.9,94.4,72.1,91.7,70.4z M87,47.1c-1.9,0-3.5,0.4-5.2,1.3
					c-1.9,1.1-2.7,2.2-2.7,3.8c0,1.8,1,3.5,2.9,4.9c1.7,1.3,3.7,2.2,5.8,2.6c2.1-1.1,3.7-2,4.5-2.6c1.9-1.3,2.9-2.6,2.9-4
					c0-1.8-0.8-3.3-2.7-4.4C90.9,47.7,89,47.1,87,47.1z"/>
			</g>
			<g>
				
					<linearGradient id="SVGID_20_" gradientUnits="userSpaceOnUse" x1="-107.948" y1="362.9029" x2="1021.2399" y2="469.8336" gradientTransform="matrix(1 0 0 1 0 -214.6142)">
					<stop  offset="0" style="stop-color:#636363"/>
					<stop  offset="1" style="stop-color:#000000"/>
				</linearGradient>
				<path class="st24" d="M307.8,206.9l-5.4,7.1l-9.5-44.6l5.4-7.3L307.8,206.9z M315.9,181.7c0,0.2-0.4,0.4-0.8,0.5
					c-0.8-1.5-2.3-2.7-4.5-4c-2.1-1.3-4.1-2-6-2.4c-0.6-0.2-1-0.4-1-0.9c-0.4-1.6,1.4-4,5.4-7.3c3.7-2.9,6.6-4.6,8.7-4.9
					c7.6-1.3,14,0.5,19.6,5.3c2.1,1.8,3.3,4.4,4.1,7.8c0.8,3.6,0.2,7.3-1.4,10.6c-1,2.2-3.3,4.7-6.8,7.5c-3.1,2.6-6,4.6-8.7,6
					c-0.8,0.4-5.8,2.9-14.9,7.1l0.6-5.1c8.7-3.8,15.1-8.6,19-14c2.5-3.5,3.3-7.1,2.5-10.9c-0.8-3.6-3.1-6.2-7-7.8
					c-2.1-0.7-3.9-1.1-5.6-0.7c-1.4,0.2-3.1,0.9-4.7,2c0.6,0.2,1.4,0.5,2.5,1.1c3.3,1.6,5.6,4.9,6.8,9.7c0.8,3.5,0,6.6-2.3,9.5
					c-1,1.3-3.1,2.2-5.8,2.7c-2.3,0.4-4.3,0-6.2-1.1c-1.9-1.1-3.1-2.7-3.5-4.7c-0.4-2.2,0.2-4,1.9-5.5c1-0.9,2.3-1.6,3.5-1.8
					c1.7-0.2,3.3,0,5.6,1.1c0.2,0,0.2,0.2,0.2,0.4s-0.2,0.4-0.6,0.7l1-0.4c0.4,0.5,0,1.1-0.8,1.3L315.9,181.7z"/>
			</g>
			<g>
				
					<linearGradient id="SVGID_21_" gradientUnits="userSpaceOnUse" x1="-98.6242" y1="264.442" x2="1030.5636" y2="371.3727" gradientTransform="matrix(1 0 0 1 0 -214.6142)">
					<stop  offset="0" style="stop-color:#636363"/>
					<stop  offset="1" style="stop-color:#000000"/>
				</linearGradient>
				<path class="st25" d="M540.2,130.9c-3.3,1.6-6.2,2.6-8.7,2.6c-1.2,0-3.1-0.5-5.2-1.5c-2.9-1.3-4.3-3.1-4.3-5.5
					c0-1.8,0.8-3.6,2.3-5.1c1.4-1.5,3.1-2.4,5.2-3.1c0.8-0.2,2.1-0.4,3.1-0.4c3.9,0,7,0.7,9.1,2.4c1.2-1.5,1.9-2.7,1.9-4.2
					c0-1.3-0.8-2.7-2.7-4.7c-4.1-4.2-8.7-8.4-13.8-12.6c-3.1-2.6-4.7-5.1-4.7-7.3c0-2.4,1.2-4.4,3.7-5.5c1-0.5,2.1-0.7,3.1-0.7
					c1.9,0,3.1,0.5,4.3,1.6c1,1.1,1.7,2.6,1.7,4.2c0,0.4-0.2,1.3-0.6,2.4c10.9,9.3,16.5,17.1,16.5,23.5
					C550.8,122.5,547.3,127.3,540.2,130.9z"/>
			</g>
			<g>
				
					<linearGradient id="SVGID_22_" gradientUnits="userSpaceOnUse" x1="-109.0159" y1="374.1786" x2="1020.1725" y2="481.1093" gradientTransform="matrix(1 0 0 1 0 -214.6142)">
					<stop  offset="0" style="stop-color:#636363"/>
					<stop  offset="1" style="stop-color:#000000"/>
				</linearGradient>
				<path class="st26" d="M499.2,222.2h0.4c-1,0.4-2.3,0.4-3.5,0c-1.4-0.4-2.5-0.9-3.3-1.6c-1.9-1.6-2.7-3.8-2.3-6.4
					c-3.3,0.5-6.2-0.2-8.3-1.8c-2.3-2-2.5-4.4-0.8-7.3c0.2-0.5,0.6-0.9,1.2-1.5c2.3-2,5.4-2.9,9.3-2.6c0.6,0,1.7,0.2,3.1,0.4
					c0.2-0.7,0.2-1.5,0.4-2.6c-0.2-1.3-1-2.6-2.1-3.6c1.7,1.5,0.4,0.4-3.5-2.9l-0.2-8.6l8.7,7.5c1.7,1.5,2.7,3.1,3.1,5.1
					c0,1.3,0,3.1-0.4,5.6c3.5-0.9,6.8-0.4,10.5,1.3c1,0.5,1.9,0.9,2.1,1.1c1.7,1.5,1.7,5.5,0,12.6l-0.2,0.9l6.2-6.4l7.4-7.5
					c0.2,2.6,0.4,4.6,0.2,5.8c-0.2,0.9-0.6,1.6-1.4,2.4c-0.4,0.5-0.6,0.5-0.6,0.5c-0.2,0.7,0.2,1.6,1.4,2.9v8.4l-6.6-5.6l-33.6,30.2
					l-0.2-8.7l20.4-17.9c1-0.9,1.7-2.7,2.1-5.5c0.4-2.7,0.2-4.6-0.8-5.3c-1.2-0.9-2.7-1.3-3.9-0.9c0.4,2.7,0.6,4.6,0.6,5.3
					c0,2-0.8,3.5-2.3,4.7C501.4,221.3,500.4,221.8,499.2,222.2z"/>
			</g>
		</g>
	</g>
	<g class="st4">
		<g>
			<g>
				
					<linearGradient id="SVGID_23_" gradientUnits="userSpaceOnUse" x1="-108.5901" y1="369.6828" x2="1020.598" y2="476.6134" gradientTransform="matrix(1 0 0 1 0 -214.6142)">
					<stop  offset="0" style="stop-color:#636363"/>
					<stop  offset="1" style="stop-color:#000000"/>
				</linearGradient>
				<path class="st27" d="M135.1,171.4c-1.7-0.5-3.1-1.8-4.5-3.5c-1.4-1.8-2.1-3.5-1.9-4.7c0-1.1,0.2-2,0.6-2.9
					c0.4-1.1,1.2-2,2.1-2.9l-3.1-1.1l-3.7-7.8l43.3,15.1l3.7,7.8l-8.1-2.9l-17.8,39.3l-2.5-4.9c0-3.5,0-5.5,0-5.8
					c-0.2-1.8-1-3.6-2.1-5.6c-1.7-2.9-3.9-5.1-6.8-6.4c-1.9-0.9-3.5-1.6-4.7-2l-3.9-8.4C128.5,174,131.6,172.7,135.1,171.4z
					 M157.4,166.5l-13.2-4.6c-1.7-0.7-3.3-0.4-5,1.1c-0.4,0.4-0.8,0.7-0.8,1.1c-0.4,0.7-0.2,1.6,0.2,2.4c0.4,0.9,1.2,1.5,2.1,1.6
					c2.3,0.9,5,0.4,7.8-1.3l3.9,7.8c-4.5,0.7-9.1,2.2-13.8,4.4c0.8,0.7,2.1,1.8,3.5,3.3c2.1,2.4,3.5,5.1,4.5,8L157.4,166.5z"/>
			</g>
			<g>
				
					<linearGradient id="SVGID_24_" gradientUnits="userSpaceOnUse" x1="-103.5136" y1="316.0751" x2="1025.6742" y2="423.0058" gradientTransform="matrix(1 0 0 1 0 -214.6142)">
					<stop  offset="0" style="stop-color:#636363"/>
					<stop  offset="1" style="stop-color:#000000"/>
				</linearGradient>
				<path class="st28" d="M247.6,145.9c-3.3-1.3-7-2.4-11.4-3.1l-4.5-14.2l2.3-0.5c0.4,1.5,3.1,2.9,7.6,4.6c3.7,1.3,6.8,2,9.5,2.4
					c1.4,0.2,3.5-0.2,5.8-1.1c2.3-0.9,3.5-2,3.5-3.3c0-1.5-1.2-3.1-3.9-5.3c-1-0.9-2.3-1.6-3.5-2.2c-1.7-0.7-4.7-2-9.3-4
					c-3.3-1.5-5-3.3-5-5.5c0-1.1,0.4-2.2,1-3.6c1.7-1.5,3.3-2,5-2c0.2,0,1.4,0.2,3.5,0.7c1.2,0.7,2.1,2.2,2.5,4
					c5,2.2,8.5,4.4,10.7,6.2c3.3,2.9,5.2,6.2,5.2,10c0,3.3-0.8,5.8-2.5,7.8c-0.6,0.7-2.3,2-4.7,3.8c-0.8,0.7-1.9,1.1-3.1,1.3
					l-0.8,0.2c2.5,1.6,5.4,3.6,9.1,5.8c2.3,1.5,5.2,3.8,9.1,7.1l1.9,8.7C266.1,155.7,257,149.7,247.6,145.9z"/>
			</g>
			<g>
				
					<linearGradient id="SVGID_25_" gradientUnits="userSpaceOnUse" x1="-102.3773" y1="304.0757" x2="1026.8107" y2="411.0062" gradientTransform="matrix(1 0 0 1 0 -214.6142)">
					<stop  offset="0" style="stop-color:#636363"/>
					<stop  offset="1" style="stop-color:#000000"/>
				</linearGradient>
				<path class="st29" d="M212.5,114.9c0.2,0,0.4,0,0.6,0.2h-0.2c0,0-0.2,0-0.6,0l0,0c0-1.1-0.4-2.2-1.4-3.1s-2.1-1.5-3.3-1.6
					c-2.5-0.4-4.1-0.5-5-0.5c-0.2,0-0.4-0.2-0.4-0.5v33.7l-3.9-3.1c-0.8-1.5-2.3-3.5-4.1-6.4c-4.7-5.5-10.9-8.2-18.2-8.4l-6-7.7
					c3.3-3.1,7.4-6.6,12.4-10c-0.8-0.4-1.4-0.9-2.3-1.5c-1.9-0.2-4.1-0.5-6.8-1.1c-1.9-0.9-3.1-1.8-4.1-2.7l-2.3-1.5l-6.6-5.8h56.6
					l6.8,6h-40.5c3.7,2.7,7.2,6,10.3,10c-1.7,1.3-5.2,3.8-10.5,7.8c4.5,1.8,8.7,4.7,12.4,8.7v-25c1.2-0.5,2.9-0.9,4.5-0.9
					c7.8,0,13.2,2.6,16.3,7.8c1.2,2.2,1.9,4.4,1.9,6.7c0,2.4-0.8,4.4-2.3,5.8c-1.4,1.5-3.7,2.2-6.4,2.2c-1.7,0-3.1-0.5-4.5-1.6
					c-1.2-1.1-1.9-2.4-1.9-3.8c0-1.5,0.6-2.7,1.7-3.6c1-0.9,2.5-1.5,4.1-1.5C209.8,113.6,211.2,114,212.5,114.9z"/>
			</g>
			<g>
				
					<linearGradient id="SVGID_26_" gradientUnits="userSpaceOnUse" x1="-100.8943" y1="288.4155" x2="1028.2935" y2="395.3462" gradientTransform="matrix(1 0 0 1 0 -214.6142)">
					<stop  offset="0" style="stop-color:#636363"/>
					<stop  offset="1" style="stop-color:#000000"/>
				</linearGradient>
				<path class="st30" d="M317.1,102.1l1.9-4.2c1.2-2.7,3.3-6.9,6.2-12.4l2.5,6c-0.6,0.4-1,0.9-1.4,1.6c-0.8,1.5-0.6,2.6,0.4,3.3
					c0.4,0.4,1.2,0.5,2.5,0.5l3.3,8.2l-8.7-3.6L303,140.7l-3.5-9.1l10.9-19.9c0.8-1.5,1.2-3.6,1-6.4s-0.8-4.9-1.7-6.6
					c-1.2-2-2.9-3.3-4.7-3.8c-3.3-0.9-6-0.7-7.8,0.2c0.6,0.4,1.4,0.5,2.5,0.9c5.6,2.2,7.4,5.6,5.6,10.4c-0.6,1.5-2.1,3.1-4.7,4.9
					c-2.1,1.5-4.3,2.6-6.6,3.5c-0.8,0.4-2.3,0.9-4.3,1.6l-2.9-8.7c1.2-0.2,3.7-1.1,7.8-2.4c3.5-1.3,5.6-2,5.8-2.6
					c0.2-0.5,0-0.9-0.8-1.3c-0.4-0.2-1.9-0.2-4.3,0c-2.7,0.2-4.3,0-5.2-0.4c-0.8-0.4-1.4-0.7-1.7-1.3c-1.7-2.4-1.9-4.7-0.6-6.9
					c0.8-1.6,2.3-3.1,4.5-4.4c2.1-1.3,4.3-2,6.2-2.2c2.5-0.2,5.2,0.2,7.6,1.3C313.2,90.8,316.9,95.8,317.1,102.1z"/>
			</g>
			<g>
				
					<linearGradient id="SVGID_27_" gradientUnits="userSpaceOnUse" x1="-103.938" y1="320.5565" x2="1025.2499" y2="427.4873" gradientTransform="matrix(1 0 0 1 0 -214.6142)">
					<stop  offset="0" style="stop-color:#636363"/>
					<stop  offset="1" style="stop-color:#000000"/>
				</linearGradient>
				<path class="st31" d="M423.7,150.5L423.7,150.5c0.6-2,1.9-3.5,3.9-4c1.2-0.4,2.9-0.5,5.4-0.5c2.1,0,3.3-0.2,3.7-0.7
					c0.2-0.5,0.8-1.5,1.2-2.6l2.3,0.7c0.4,1.1,0.6,2.4,0.6,3.3c0,4.9-3.1,7.3-9.1,7.3h-3.5c-0.8,0-1.2,0-1.4,0.2
					c0,0.2,0.2,0.9,0.8,2.4c0.6,1.3,0.8,2.4,0.8,3.3c0,3.6-2.1,7.3-6.2,10.9c-4.1,3.6-8.3,5.5-12.4,5.5c-1.9,0-3.7-1.1-5.8-3.1
					c-1.7-1.8-2.9-3.5-3.7-5.3v-25.5c-3.5-0.2-5.4-1.8-5.2-5.1c0-3.5,1.9-5.3,5.2-5.3c1.7,0,3.3,0.5,4.5,1.5
					c1.4,1.1,2.1,2.2,2.3,3.6l0.4,4.2v7.3c2.7-1.8,5.2-2.7,7.8-2.7C418,145.8,420.6,147.4,423.7,150.5z M417.7,154.1
					c-1-0.5-2.3-0.9-3.5-0.9c-2.3,0-4.5,0.7-6.6,2v12.9c0,0.4,0.2,0.9,0.2,1.3c2.9-0.2,6-2.4,9.3-6.7c1.4-1.8,2.1-3.6,1.9-5.6
					c0.2-0.4,0.2-0.7,0.2-0.9C419.4,155.4,418.8,154.7,417.7,154.1z"/>
			</g>
			<g>
				
					<linearGradient id="SVGID_28_" gradientUnits="userSpaceOnUse" x1="-110.8086" y1="393.1098" x2="1018.3795" y2="500.0405" gradientTransform="matrix(1 0 0 1 0 -214.6142)">
					<stop  offset="0" style="stop-color:#636363"/>
					<stop  offset="1" style="stop-color:#000000"/>
				</linearGradient>
				<path class="st32" d="M399.9,210c0.4-0.2,0.2,0.2-0.6,0.7c-1,0.9-1.7,1.5-1.9,1.8c-0.2,1.1,0,2,0.4,2.9c0.2,0.2,0.6,0.7,1.4,1.5
					c2.7,1.5,5.8,3.3,9.3,5.5l5.8-2.6l3.7,6.6l-3.1,8l-3.7-6.6l-45.8,19.9l4.1-5.1l3.3-3.5c1-1.1,2.1-2.7,3.1-4.9
					c0.8-2.2,1.4-4,1.7-5.6c0.4-3.1,0.6-5.1,0.4-6.2c-0.2-1.5-0.8-3.5-1.9-6l5-8.4c2.5,1.1,6.2,2.7,10.9,5.1
					c-0.8-2.7-0.4-4.9,1.2-6.7c1-1.3,2.3-2.2,3.5-2.7c2.9-1.3,5.6-1.1,8.1,0.4c1.4,0.9,2.7,2,3.3,3.3c0.6,1.3,1,2.6,0.8,3.8
					c-0.2,1.6-1,2.7-2.3,3.3c-1.2,0.5-2.5,0.5-3.5,0.2c-1.2-0.2-2.1-0.9-2.9-2.2C400.1,211.8,399.9,210.9,399.9,210z M399.1,226.5
					c-3.7-2.7-8.3-5.1-13.4-7.1c-0.2,5.3-1.4,10.2-3.9,14.6L399.1,226.5z"/>
			</g>
			<g>
				
					<linearGradient id="SVGID_29_" gradientUnits="userSpaceOnUse" x1="-112.0909" y1="406.6511" x2="1017.0975" y2="513.5819" gradientTransform="matrix(1 0 0 1 0 -214.6142)">
					<stop  offset="0" style="stop-color:#636363"/>
					<stop  offset="1" style="stop-color:#000000"/>
				</linearGradient>
				<path class="st33" d="M42.4,194.1l-7-6h51.4l7,6H42.4z M68.8,208.8c-0.2-0.2-0.4-0.4-0.4-0.9c1.7-0.5,3.5-1.5,5.4-3.1
					s3.1-3.1,3.7-4.7c0.2-0.5,0.6-0.7,1.2-0.7c1.9,0,4.3,2,7,6c2.7,3.8,3.9,6.6,3.9,8.4c0,6.7-3.3,12.2-9.5,16
					c-2.3,1.5-5.4,2.2-9.5,2.2c-4.3,0-8.1-1.1-11.6-3.3c-2.3-1.5-4.5-3.8-7-7.3c-2.3-3.1-3.9-6-5.2-8.6c-0.4-0.7-2.1-5.5-5.4-14.2
					l5.6,1.5c2.7,8.2,6.8,14.6,12.2,18.9c3.3,2.7,7.2,4.2,11.6,4.2c4.1,0,7.6-1.6,10.1-4.7c1.2-1.6,1.9-3.1,1.9-4.6
					s-0.4-2.9-1.2-4.6c-0.4,0.5-1,1.3-1.7,2c-2.5,2.6-6.6,4-12.2,4.2c-3.9,0.2-7.4-1.1-10.1-3.6c-1.2-1.3-1.9-3.1-1.9-5.5
					c0-2,0.8-3.8,2.3-5.3c1.4-1.5,3.5-2.2,5.8-2.2c2.5,0,4.3,0.9,5.8,2.6c0.8,1.1,1.4,2.2,1.4,3.5c0,1.5-0.6,2.9-2.1,4.6
					c-0.2,0.2-0.2,0.2-0.4,0.2s-0.4-0.2-0.6-0.7l0.2,0.9c-0.8,0.2-1.2-0.2-1.2-0.9h1.9C68.8,209.1,68.8,208.8,68.8,208.8z"/>
			</g>
			<g>
				
					<linearGradient id="SVGID_30_" gradientUnits="userSpaceOnUse" x1="-108.2376" y1="365.9606" x2="1020.9502" y2="472.8913" gradientTransform="matrix(1 0 0 1 0 -214.6142)">
					<stop  offset="0" style="stop-color:#636363"/>
					<stop  offset="1" style="stop-color:#000000"/>
				</linearGradient>
				<path class="st34" d="M16,186.5c-3.7,0.4-6.8,0-9.1-0.9c-1.2-0.5-2.5-1.6-4.1-3.3c-2.1-2.2-2.5-4.4-1.2-6.6
					c0.8-1.6,2.5-2.9,4.5-3.8c1.9-0.7,3.9-1.1,6.2-0.7c1,0.2,2.1,0.4,3.1,0.7c3.5,1.5,6,3.3,7,5.5c1.9-0.7,2.9-1.8,3.7-3.3
					c0.6-1.1,0.4-2.9-0.2-5.3c-1.7-5.3-3.9-10.7-6.6-16.6c-1.7-3.6-1.9-6.4-0.8-8.4c1.2-2.2,3.1-3.5,6-3.6c1.2-0.2,2.3,0,3.1,0.4
					c1.7,0.7,2.7,1.6,3.1,3.1s0.2,2.9-0.4,4.4c-0.2,0.4-0.8,1.1-1.7,2c5.6,12.6,6.8,21.7,3.9,27.3C29.6,182.6,24,185.7,16,186.5z"/>
			</g>
		</g>
	</g>
	<g class="st4">
		<g>
			<g>
				
					<linearGradient id="SVGID_31_" gradientUnits="userSpaceOnUse" x1="-99.8721" y1="277.6205" x2="1029.3157" y2="384.5513" gradientTransform="matrix(1 0 0 1 0 -214.6142)">
					<stop  offset="0" style="stop-color:#636363"/>
					<stop  offset="1" style="stop-color:#000000"/>
				</linearGradient>
				<path class="st35" d="M1169.8,176.5c-1.7-0.5-3.1-1.8-4.5-3.5c-1.4-1.8-2.1-3.5-1.9-4.7c0-1.1,0.2-2,0.6-2.9
					c0.4-1.1,1.2-2,2.1-2.9l-3.1-1.1l-3.7-7.8l43.3,15.1l3.7,7.8l-8-2.9l-17.8,39.3l-2.5-4.9c0-3.5,0-5.5,0-5.8
					c-0.2-1.8-1-3.6-2.1-5.6c-1.7-2.9-3.9-5.1-6.8-6.4c-1.9-0.9-3.5-1.6-4.7-2l-3.9-8.4C1163.2,179,1166.3,177.7,1169.8,176.5z
					 M1191.9,171.5l-13.2-4.6c-1.7-0.7-3.3-0.4-5,1.1c-0.4,0.4-0.8,0.7-0.8,1.1c-0.4,0.7-0.2,1.6,0.2,2.4c0.4,0.9,1.2,1.5,2.1,1.6
					c2.3,0.9,5,0.4,7.8-1.3l3.9,7.8c-4.5,0.7-9.1,2.2-13.8,4.4c0.8,0.7,2.1,1.8,3.5,3.3c2.1,2.4,3.5,5.1,4.5,8L1191.9,171.5z"/>
			</g>
			<g>
				
					<linearGradient id="SVGID_32_" gradientUnits="userSpaceOnUse" x1="-105.6119" y1="338.233" x2="1023.5762" y2="445.1635" gradientTransform="matrix(1 0 0 1 0 -214.6142)">
					<stop  offset="0" style="stop-color:#636363"/>
					<stop  offset="1" style="stop-color:#000000"/>
				</linearGradient>
				<path class="st36" d="M871.1,227.3c-3.3-1.3-7-2.4-11.4-3.1l-4.5-14.2l2.3-0.5c0.4,1.5,3.1,2.9,7.6,4.6c3.7,1.3,6.8,2,9.5,2.4
					c1.4,0.2,3.5-0.2,5.8-1.1c2.3-0.9,3.5-2,3.5-3.3c0-1.5-1.2-3.1-3.9-5.3c-1-0.9-2.3-1.6-3.5-2.2c-1.7-0.7-4.7-2-9.3-4
					c-3.3-1.5-5-3.3-5-5.5c0-1.1,0.4-2.2,1-3.6c1.7-1.5,3.3-2,5-2c0.2,0,1.4,0.2,3.5,0.7c1.2,0.7,2.1,2.2,2.5,4
					c5,2.2,8.5,4.4,10.7,6.2c3.3,2.9,5.2,6.2,5.2,10c0,3.3-0.8,5.8-2.5,7.8c-0.6,0.7-2.3,2-4.7,3.8c-0.8,0.7-1.9,1.1-3.1,1.3
					l-0.8,0.2c2.5,1.6,5.4,3.6,9.1,5.8c2.3,1.5,5.2,3.8,9.1,7.1l1.9,8.7C889.7,236.9,880.6,231.1,871.1,227.3z"/>
			</g>
			<g>
				
					<linearGradient id="SVGID_33_" gradientUnits="userSpaceOnUse" x1="-113.3122" y1="419.5491" x2="1015.8756" y2="526.4797" gradientTransform="matrix(1 0 0 1 0 -214.6142)">
					<stop  offset="0" style="stop-color:#636363"/>
					<stop  offset="1" style="stop-color:#000000"/>
				</linearGradient>
				<path class="st37" d="M478.7,239.3h0.2h1.4c1,0,3.1-0.2,6.4-0.4l7.2-0.4c4.1,0.2,7.4,1.3,9.9,2.9c2.9,2,4.3,4.7,4.3,8.2h3.5
					l6.8,6h-26.8v10.7c0,0.5,0,0.9,0.2,1.3s0.4,0.7,0.8,0.9c0.2,0,0.4,0,0.4,0c0.2,0,1.7-1.3,3.7-3.6c2.3-2.4,3.9-3.6,5.2-3.6
					c2.3,0,4.5,1.8,6.6,5.3c1.9,3.1,2.7,5.8,2.7,8c0,7.3-2.9,12.2-8.5,14.8c-3.1,1.5-6.6,2-10.7,1.6c-4.3-0.4-7.8-1.8-10.5-4.2
					c-2.1-1.8-4.1-4.7-6.4-8.7c-0.4-0.7-1.2-2.7-2.7-6c-0.8-2.2-1.9-7.8-3.1-16.9l5.2,2.4c0.2,2.9,0.8,6.2,2.3,9.7
					c1.2,3.8,2.9,6.7,5,8.7l2.3,2.7c0.2,0.4,0.6,0.7,0.8,0.9c2.1,1.8,5,2.6,8.5,2.6c4.7,0,8.3-1.5,10.1-4.6c1.2-2,2.1-3.6,2.1-4.9
					c0-1.1-0.4-2-1-2.9c-1.9,2.2-4.1,4-6.8,5.5c-1.7,0.7-3.1,1.3-4.7,1.3c-2.3,0-4.1-0.7-5.8-2.4s-2.5-3.3-2.5-5.3
					c0.4-1.1,0.8-1.6,1-1.6c0.4,0,0.8,0.5,1,1.6v0.4l0,0h-2.3v-13.7h-18l-6.6-6h37.8c1-0.4,1.9-0.7,2.7-0.9c0.6-0.2,0.8-0.2,1,0.2
					c0-0.7-0.6-1.5-2.3-2c-1.2-0.5-2.5-0.7-3.5-0.5c-2.9,0.2-5.8,0.2-8.9,0.4c-1.9,0-3.1,0.2-3.3,0.2c-3.7,0-7-0.7-9.9-2.4
					c-3.3-1.8-5.2-4.4-5.2-7.5c0-1.1,0.2-2.2,0.8-3.3c0.6-1.5,1.4-2.2,2.7-2.2c0.2,0,1.7,0.5,4.3,1.5c-1.9,1.3-2.9,2.2-2.9,2.9
					c0,1.1,0.6,1.8,1.7,2.6C476.5,238.9,477.7,239.3,478.7,239.3z"/>
			</g>
			<g>
				
					<linearGradient id="SVGID_34_" gradientUnits="userSpaceOnUse" x1="-113.7791" y1="424.4792" x2="1015.4087" y2="531.4099" gradientTransform="matrix(1 0 0 1 0 -214.6142)">
					<stop  offset="0" style="stop-color:#636363"/>
					<stop  offset="1" style="stop-color:#000000"/>
				</linearGradient>
				<path class="st38" d="M1193.7,329.3c0.2,0,0.4,0,0.6,0.2h-0.2c0,0-0.2,0-0.6,0l0,0c0-1.1-0.4-2.2-1.4-3.1s-2.1-1.5-3.3-1.6
					c-2.5-0.4-4.1-0.5-5-0.5c-0.2,0-0.4-0.2-0.4-0.5v33.7l-3.9-3.1c-0.8-1.5-2.3-3.5-4.1-6.4c-4.7-5.5-10.9-8.2-18.2-8.4l-6-7.7
					c3.3-3.1,7.4-6.6,12.4-10c-0.8-0.4-1.4-0.9-2.3-1.5c-1.9-0.2-4.1-0.5-6.8-1.1c-1.9-0.9-3.1-1.8-4.1-2.7l-2.3-1.5l-6.6-5.8h56.6
					l6.8,6h-40.5c3.7,2.7,7.2,6,10.3,10c-1.7,1.3-5.2,3.8-10.5,7.8c4.5,1.8,8.7,4.7,12.4,8.7v-25c1.2-0.5,2.9-0.9,4.5-0.9
					c7.8,0,13.2,2.6,16.3,7.8c1.2,2.2,1.9,4.4,1.9,6.7c0,2.4-0.8,4.4-2.3,5.8c-1.4,1.5-3.7,2.2-6.4,2.2c-1.7,0-3.1-0.5-4.5-1.6
					c-1.2-1.1-1.9-2.4-1.9-3.8c0-1.5,0.6-2.7,1.7-3.6c1-0.9,2.5-1.5,4.1-1.5C1191.1,327.8,1192.5,328.2,1193.7,329.3z"/>
			</g>
			<g>
				
					<linearGradient id="SVGID_35_" gradientUnits="userSpaceOnUse" x1="-98.282" y1="260.8288" x2="1030.9058" y2="367.7594" gradientTransform="matrix(1 0 0 1 0 -214.6142)">
					<stop  offset="0" style="stop-color:#636363"/>
					<stop  offset="1" style="stop-color:#000000"/>
				</linearGradient>
				<path class="st39" d="M940.5,133.3l1.9-4.2c1.2-2.7,3.3-6.9,6.2-12.4l2.5,6c-0.6,0.4-1,0.9-1.4,1.6c-0.8,1.5-0.6,2.6,0.4,3.3
					c0.4,0.4,1.2,0.5,2.5,0.5l3.3,8.2l-8.7-3.6l-20.8,39.2l-3.5-9.1l10.9-19.9c0.8-1.5,1.2-3.6,1-6.4c-0.2-2.7-0.8-4.9-1.7-6.6
					c-1.2-2-2.9-3.3-4.7-3.8c-3.3-0.9-6-0.7-7.8,0.2c0.6,0.4,1.4,0.5,2.5,0.9c5.6,2.2,7.4,5.6,5.6,10.4c-0.6,1.5-2.1,3.1-4.7,4.9
					c-2.1,1.5-4.3,2.6-6.6,3.5c-0.8,0.4-2.3,0.9-4.3,1.6l-2.9-8.7c1.2-0.2,3.7-1.1,7.8-2.4c3.5-1.3,5.6-2,5.8-2.6
					c0.2-0.5,0-0.9-0.8-1.3c-0.4-0.2-1.9-0.2-4.3,0c-2.7,0.2-4.3,0-5.2-0.4s-1.4-0.7-1.7-1.3c-1.7-2.4-1.9-4.7-0.6-6.9
					c0.8-1.6,2.3-3.1,4.5-4.4c2.1-1.3,4.3-2,6.2-2.2c2.5-0.2,5.2,0.2,7.6,1.3C936.3,122,940.3,126.7,940.5,133.3z"/>
			</g>
			<g>
				
					<linearGradient id="SVGID_36_" gradientUnits="userSpaceOnUse" x1="-101.4912" y1="294.7182" x2="1027.6969" y2="401.6488" gradientTransform="matrix(1 0 0 1 0 -214.6142)">
					<stop  offset="0" style="stop-color:#636363"/>
					<stop  offset="1" style="stop-color:#000000"/>
				</linearGradient>
				<path class="st40" d="M1042.2,183L1042.2,183c0.6-2,1.9-3.5,3.9-4c1.2-0.4,2.9-0.5,5.4-0.5c2.1,0,3.3-0.2,3.7-0.7
					c0.2-0.5,0.8-1.5,1.2-2.6l2.3,0.7c0.4,1.1,0.6,2.4,0.6,3.3c0,4.9-3.1,7.3-9.1,7.3h-3.5c-0.8,0-1.2,0-1.4,0.2
					c0,0.2,0.2,0.9,0.8,2.4c0.6,1.3,0.8,2.4,0.8,3.3c0,3.6-2.1,7.3-6.2,10.9c-4.1,3.6-8.3,5.5-12.4,5.5c-1.9,0-3.7-1.1-5.8-3.1
					c-1.7-1.8-2.9-3.5-3.7-5.3v-25.5c-3.5-0.2-5.4-1.8-5.2-5.1c0-3.5,1.9-5.3,5.2-5.3c1.7,0,3.3,0.5,4.5,1.5
					c1.4,1.1,2.1,2.2,2.3,3.6l0.4,4.2v7.3c2.7-1.8,5.2-2.7,7.8-2.7C1036.5,178.3,1039.3,179.7,1042.2,183z M1036.2,186.7
					c-1-0.5-2.3-0.9-3.5-0.9c-2.3,0-4.5,0.7-6.6,2v12.9c0,0.4,0.2,0.9,0.2,1.3c2.9-0.2,6-2.4,9.3-6.7c1.4-1.8,2.1-3.6,1.9-5.6
					c0.2-0.4,0.2-0.7,0.2-0.9C1037.9,187.9,1037.5,187.2,1036.2,186.7z"/>
			</g>
			<g>
				
					<linearGradient id="SVGID_37_" gradientUnits="userSpaceOnUse" x1="-118.737" y1="476.8339" x2="1010.4513" y2="583.7646" gradientTransform="matrix(1 0 0 1 0 -214.6142)">
					<stop  offset="0" style="stop-color:#636363"/>
					<stop  offset="1" style="stop-color:#000000"/>
				</linearGradient>
				<path class="st41" d="M779.9,330.7l38.6-0.9l-4.3,3.5c-1.4,0.2-3.3,0.9-5.8,2s-3.9,2.2-5,3.1c-0.4,0.4-1,1.3-1.7,2.4l22.7-0.5
					l-3.7,3.5l-4.7,1.6c-1.9,0.9-3.1,1.5-3.5,1.8c-5.4,3.3-8.7,8.6-9.9,15.8l-7.8,5.1c-3.1-3.3-5.2-5.8-6.4-7.3
					c-0.4-0.5-2.5-4-6.6-10.2c-1,1.1-1.7,2.2-2.1,3.1c1.2,0.7,2.7,2.2,3.9,4.2s2.1,3.8,2.3,5.3c0,0.7,0.2,1.3,0.2,1.6
					c0,2.2-0.6,4-1.9,5.5c-1.2,1.5-3.1,2.2-5.6,2.4c-1.7,0-3.1-0.5-4.5-1.5c-1.2-1.1-1.9-2.4-2.1-3.8c0-2.4,1.4-3.8,4.3-4.4
					c-0.8-2.7-2.9-5.1-6.6-6.7c1.9-3.6,4.3-6.6,7.4-8.7l-14.4,0.4l6.6-6.2l24.1-0.5c1.2-1.8,2.7-3.3,4.1-4.6l-34.5,0.9l5-5.6
					l4.7-0.4l-0.2-3.5l6.6-6.4L779.9,330.7z M790,347c2.1,3.1,4.1,6.2,6.6,8.9c2.3-3.6,5-6.7,8.3-9.3L790,347z"/>
			</g>
			<g>
				
					<linearGradient id="SVGID_38_" gradientUnits="userSpaceOnUse" x1="-113.9374" y1="426.1501" x2="1015.2504" y2="533.0807" gradientTransform="matrix(1 0 0 1 0 -214.6142)">
					<stop  offset="0" style="stop-color:#636363"/>
					<stop  offset="1" style="stop-color:#000000"/>
				</linearGradient>
				<path class="st42" d="M906.2,287.9V313c0,0.9,0.4,1.5,1,1.5c2.1,0,5.2-2.4,9.3-6.9c0.6-0.7,1-1.6,1.4-2.7c-1.9,0-3.5-0.5-5-1.5
					c-1.4-1.1-2.1-2.4-2.1-4c0-1.8,0.6-3.5,1.9-4.7s2.9-1.8,4.7-1.8c3.3,0,5.8,1.5,7.6,4.2c1.2,1.8,1.7,3.6,1.7,5.6
					c-0.2,2.7-0.6,4.9-1.2,6.4c-0.6,1.6-1.9,3.6-3.7,5.5c-4.5,4.9-9.1,7.5-13.4,7.5c-4.3,0-7.2-2.6-9.1-7.7c-0.2-0.9-0.4-2.9-0.4-6
					v-20.2h-6.2l-6.6-6h41.5l6.8,6h-28.3L906.2,287.9L906.2,287.9z M915.7,332.4c-1.2,2.7-3.1,4-6,4c-1.7,0-3.3-0.5-4.5-1.6
					s-1.9-2.4-1.9-4c0-1.8,0.6-3.3,1.9-4.6c1.2-1.3,2.7-2,4.7-2c1.7,0,3.3,0.5,4.5,1.6s1.9,2.4,1.9,4
					C916.3,330.7,916.1,331.7,915.7,332.4z"/>
			</g>
			<g>
				
					<linearGradient id="SVGID_39_" gradientUnits="userSpaceOnUse" x1="-106.0566" y1="342.929" x2="1023.1312" y2="449.8597" gradientTransform="matrix(1 0 0 1 0 -214.6142)">
					<stop  offset="0" style="stop-color:#636363"/>
					<stop  offset="1" style="stop-color:#000000"/>
				</linearGradient>
				<path class="st43" d="M964.8,240c-1.7,2.9-3.5,5.1-5.6,6.4c-1,0.7-2.9,1.1-5.4,1.5c-3.1,0.4-5.6-0.4-7-2.4
					c-1.2-1.5-1.7-3.3-1.2-5.5c0.2-1.8,1-3.5,2.5-5.1c0.6-0.7,1.4-1.3,2.3-1.8c3.3-2,6.2-2.7,9.1-2.6c0.2-1.8-0.2-3.3-1.2-4.4
					c-0.8-1.1-2.5-1.8-5.2-2.6c-6-1.5-12.4-2.6-19.4-3.5c-4.3-0.5-7.2-1.8-8.7-3.6c-1.7-2-1.7-4.2-0.6-6.4c0.4-0.9,1.2-1.6,2.1-2.2
					c1.4-0.9,3.1-1.1,4.5-0.7c1.7,0.4,2.9,1.3,3.9,2.6c0.2,0.4,0.6,1.1,1,2.2c15.1,2.2,24.6,6,28.7,11.1
					C968.3,227.8,968.3,233.5,964.8,240z"/>
			</g>
			<g>
				
					<linearGradient id="SVGID_40_" gradientUnits="userSpaceOnUse" x1="-116.126" y1="449.2614" x2="1013.0618" y2="556.1921" gradientTransform="matrix(1 0 0 1 0 -214.6142)">
					<stop  offset="0" style="stop-color:#636363"/>
					<stop  offset="1" style="stop-color:#000000"/>
				</linearGradient>
				<path class="st44" d="M994.8,329.8c2.7-3.5,7-8,12.8-13.7c0,2.2,0.2,3.5,0,3.6c0,1.6-0.2,2.7-0.6,3.3c-0.8,1.3-1,2.4-0.8,3.3
					l0.4,1.5l1.2,0.9l0.6,8.6l-7.4-5.6l-31.4,31.7l-0.6-9.1l16.7-16.9c2.1-2,3.1-4.7,3.3-7.8c0.2-3.1-0.8-5.5-3.1-7.3
					c-1.4-1.1-3.3-1.6-5.6-1.3c-2.3,0.4-3.9,1.3-5.4,2.6c-1.2,1.3-1.9,2.9-1.7,4.7l0.6-0.7c2.1-2.2,4.5-2.2,7.2-0.2
					c1.4,1.1,2.1,2.4,2.3,4s-0.4,3.1-1.7,4.2c-1.4,1.5-3.3,2.2-5.6,2s-4.3-0.9-6-2.2c-3.1-2.4-4.5-5.5-4.5-9.3
					c0-2.9,1.2-5.6,3.7-8.2c3.1-3.1,6.6-4.7,10.7-5.1c4.1-0.4,7.8,0.7,11.4,3.5c1.4,1.1,2.7,2.9,3.5,5.5
					C995.6,324.4,995.4,327.1,994.8,329.8z"/>
			</g>
			<g>
				
					<linearGradient id="SVGID_41_" gradientUnits="userSpaceOnUse" x1="-108.1877" y1="365.4334" x2="1021.0007" y2="472.3641" gradientTransform="matrix(1 0 0 1 0 -214.6142)">
					<stop  offset="0" style="stop-color:#636363"/>
					<stop  offset="1" style="stop-color:#000000"/>
				</linearGradient>
				<path class="st45" d="M1023.2,241.1c0.4-0.2,0.2,0.2-0.6,0.7c-1,0.9-1.7,1.5-1.9,1.8c-0.2,1.1,0,2,0.4,2.9
					c0.2,0.2,0.6,0.7,1.4,1.5c2.7,1.5,5.8,3.3,9.3,5.5l5.8-2.6l3.7,6.6l-3.1,8l-3.7-6.6l-45.8,19.9l4.1-5.1l3.3-3.5
					c1-1.1,2.1-2.7,3.1-4.9c0.8-2.2,1.4-4,1.7-5.6c0.4-3.1,0.6-5.1,0.4-6.2c-0.2-1.5-0.8-3.5-1.9-6l5-8.4c2.5,1.1,6.2,2.7,10.9,5.1
					c-0.8-2.7-0.4-4.9,1.2-6.7c1-1.3,2.3-2.2,3.5-2.7c2.9-1.3,5.6-1.1,8.1,0.4c1.4,0.9,2.7,2,3.3,3.3c0.6,1.3,1,2.6,0.8,3.8
					c-0.2,1.6-1,2.7-2.3,3.3c-1.2,0.5-2.5,0.5-3.5,0.2c-1.2-0.2-2.1-0.9-2.9-2.2C1023.4,242.8,1023.2,242,1023.2,241.1z
					 M1022.4,257.5c-3.7-2.7-8.3-5.1-13.4-7.1c-0.2,5.3-1.4,10.2-3.9,14.6L1022.4,257.5z"/>
			</g>
			<g>
				
					<linearGradient id="SVGID_42_" gradientUnits="userSpaceOnUse" x1="-106.88" y1="351.6234" x2="1022.3078" y2="458.5541" gradientTransform="matrix(1 0 0 1 0 -214.6142)">
					<stop  offset="0" style="stop-color:#636363"/>
					<stop  offset="1" style="stop-color:#000000"/>
				</linearGradient>
				<path class="st46" d="M552.8,215.4c-1.9,1.5-3.7,2.4-5.2,2.9c-1,0.2-2.9,0.4-5.4,0.4c-3.3,0-6.4-0.7-9.1-2.2
					c-1.9-1.1-4.3-2.9-7.2-5.6c-5.2-4.7-9.9-14.8-14.7-30.1l5.6,2.7c1.9,3.6,5,9.7,9.3,17.7c0.8,1.6,2.7,3.3,5.6,5.3
					c3.7,2.6,7,3.8,10.1,3.8c2.3,0,4.3-0.5,6-1.5c2.1-1.1,2.9-2.7,2.9-4.7c0-0.9-0.4-1.8-1.4-2.6c-1.2,0.7-2.7,1.3-4.1,1.3
					c-1.9,0-3.5-0.5-4.7-1.6s-1.9-2.4-1.9-4.2c0-1.6,0.6-3.1,1.9-4.2c1.2-1.3,2.7-1.8,4.5-1.8c1.2,0,2.5,0.2,3.7,0.7
					c1.4-0.7,2.3-2,2.3-3.6c0-2.4-1.4-3.6-4.5-3.6c-3.3,0-6.4,1.1-9.7,3.3c-0.8,0.5-1.2,0.9-1.9,1.5c1.7,1.3,2.5,3.1,2.5,5.1
					c0,2.9-1.9,4.4-5.8,4.4c-5,0-7.4-2.4-7.4-6.9s3.1-8.2,9.5-11.1c3.5-1.5,6.8-2.4,10.3-2.4c3.3,0,6.4,0.9,8.7,2.6
					c2.5,1.6,3.7,4,3.7,6.9c0,4.2-1,7.7-3.1,10.2c2.3,2.9,3.5,5.6,3.5,8.2C557,210.2,555.5,213.3,552.8,215.4z"/>
			</g>
			<g>
				
					<linearGradient id="SVGID_43_" gradientUnits="userSpaceOnUse" x1="695.7056" y1="593.4405" x2="1016.2249" y2="623.7927" gradientTransform="matrix(1 0 0 1 0 -214.6142)">
					<stop  offset="0" style="stop-color:#636363"/>
					<stop  offset="1" style="stop-color:#000000"/>
				</linearGradient>
				<path class="st47" d="M1024.9,401.8c-4.3,1.5-9.1,3.6-14,6.4c5.6,2.4,10.3,5.8,14,10V401.8z"/>
			</g>
			<g>
				
					<linearGradient id="SVGID_44_" gradientUnits="userSpaceOnUse" x1="-115.634" y1="444.0659" x2="1013.5539" y2="550.9966" gradientTransform="matrix(1 0 0 1 0 -214.6142)">
					<stop  offset="0" style="stop-color:#636363"/>
					<stop  offset="1" style="stop-color:#000000"/>
				</linearGradient>
				<path class="st48" d="M1100,330.2v36.6l-4.3-3.8l-1.9-4.7c-1.2-2.6-3.3-4.7-6-6.4v19.7l-4.1-3.8c-1.2-2.6-1.9-4-2.1-4.2
					c-0.4-1.1-1.4-2.4-2.7-3.8c-4.3-5.1-9.9-7.8-16.7-8.4l-7.2-7.8c8.3-5.5,17.1-9.8,26.2-12.9v-0.4h-27.5l-6.8-6h40.7v20.9
					c2.1,1.3,3.7,2.7,5.2,4.4v-33.9l4.3,3.1l0.6,3.1c0,0.5,0.2,1.1,0.6,1.8c0.8,0.4,1.4,0.5,2.3,0.5c0.4,0,0.8,0,1.4,0l6.8,6
					L1100,330.2L1100,330.2z M1081.2,338.9c-4.1,1.5-8.5,3.5-12.6,6c5,2.4,9.3,5.6,12.6,10V338.9z"/>
			</g>
			<g>
				
					<linearGradient id="SVGID_45_" gradientUnits="userSpaceOnUse" x1="-114.1421" y1="428.3122" x2="1015.046" y2="535.2429" gradientTransform="matrix(1 0 0 1 0 -214.6142)">
					<stop  offset="0" style="stop-color:#636363"/>
					<stop  offset="1" style="stop-color:#000000"/>
				</linearGradient>
				<path class="st49" d="M716.5,281.4l-7-6h51.4l7,6H716.5z M743.1,292.9c-0.2-0.2-0.4-0.4-0.4-0.9c1.7-0.5,3.5-1.5,5.4-3.1
					s3.1-3.1,3.7-4.7c0.2-0.5,0.6-0.7,1.2-0.7c1.9,0,4.3,2,7,6c2.7,3.8,3.9,6.6,3.9,8.4c0,6.7-3.3,12.2-9.5,16
					c-2.3,1.5-5.4,2.2-9.5,2.2c-4.3,0-8.1-1.1-11.6-3.3c-2.3-1.5-4.5-3.8-7-7.3c-2.3-3.1-3.9-6-5.2-8.6c-0.4-0.7-2.1-5.5-5.4-14.2
					l5.6,1.5c2.7,8.2,6.8,14.6,12.2,18.9c3.3,2.7,7.2,4.2,11.6,4.2c4.1,0,7.6-1.6,10.1-4.7c1.2-1.6,1.9-3.1,1.9-4.6
					s-0.4-2.9-1.2-4.6c-0.4,0.5-1,1.3-1.7,2c-2.5,2.6-6.6,4-12.2,4.2c-3.9,0.2-7.4-1.1-10.1-3.6c-1.2-1.3-1.9-3.1-1.9-5.5
					c0-2,0.8-3.8,2.3-5.3c1.4-1.5,3.5-2.2,5.8-2.2c2.5,0,4.3,0.9,5.8,2.6c0.8,1.1,1.4,2.2,1.4,3.5c0,1.5-0.6,2.9-2.1,4.6
					c-0.2,0.2-0.2,0.2-0.4,0.2s-0.4-0.2-0.6-0.7l0.2,0.9c-0.8,0.2-1.2-0.2-1.2-0.9h1.9V292.9z"/>
			</g>
			<g>
				
					<linearGradient id="SVGID_46_" gradientUnits="userSpaceOnUse" x1="-119.9664" y1="489.817" x2="1009.2214" y2="596.7477" gradientTransform="matrix(1 0 0 1 0 -214.6142)">
					<stop  offset="0" style="stop-color:#636363"/>
					<stop  offset="1" style="stop-color:#000000"/>
				</linearGradient>
				<path class="st50" d="M718.2,347c-1.4,1.5-2.7,2.4-3.9,2.7c-0.8,0.2-2.1,0.4-3.7,0.4c-3.1,0-5.8-1.1-8.1-3.1s-3.5-4.6-3.5-7.3
					c0-2.6,1-4.9,3.3-7.1s4.7-3.1,7.8-3.1s5.8,1.1,7.8,3.1c2.3,2.2,3.3,4.6,3.3,7.3C721.3,342.6,720.2,345,718.2,347z M721.9,373.9
					c-3.5-2.9-10.3-7.5-20-13.5v-11.7c3.7,2.6,7.8,5.8,12.2,9.5c2.5,2,7.6,7.3,15.3,15.8v6L721.9,373.9z M713.2,335.7
					c-1.2-0.2-3.1,0.5-5.4,2.2c-1.2,0.9-1.9,2.4-1.9,4.2c0,1.3,0.4,2,1.4,2s2.3-0.4,3.7-1.3c1.7-0.9,2.5-1.6,2.9-2.6
					c0.2-0.5,0.4-1.3,0.4-2.4C714.5,336.8,714,335.8,713.2,335.7z"/>
			</g>
			<g>
				
					<linearGradient id="SVGID_47_" gradientUnits="userSpaceOnUse" x1="-107.9244" y1="362.6524" x2="1021.2637" y2="469.583" gradientTransform="matrix(1 0 0 1 0 -214.6142)">
					<stop  offset="0" style="stop-color:#636363"/>
					<stop  offset="1" style="stop-color:#000000"/>
				</linearGradient>
				<path class="st51" d="M623.6,240.7c-3.7,0.4-6.8,0-9.1-0.9c-1.2-0.5-2.5-1.6-4.1-3.3c-2.1-2.2-2.5-4.4-1.2-6.6
					c0.8-1.6,2.5-2.9,4.5-3.8c1.9-0.7,3.9-1.1,6.2-0.7c1,0.2,2.1,0.4,3.1,0.7c3.5,1.5,6,3.3,7,5.5c1.9-0.7,2.9-1.8,3.7-3.3
					c0.6-1.1,0.4-2.9-0.2-5.3c-1.7-5.3-3.9-10.7-6.6-16.6c-1.7-3.6-1.9-6.4-0.8-8.4c1.2-2.2,3.1-3.5,6-3.6c1.2-0.2,2.3,0,3.1,0.4
					c1.7,0.7,2.7,1.6,3.1,3.1c0.4,1.5,0.2,2.9-0.4,4.4c-0.2,0.4-0.8,1.1-1.7,2c5.6,12.6,6.8,21.7,3.9,27.3
					C637.1,237,631.7,240,623.6,240.7z"/>
			</g>
			<g>
				
					<linearGradient id="SVGID_48_" gradientUnits="userSpaceOnUse" x1="-114.9078" y1="436.3968" x2="1014.28" y2="543.3275" gradientTransform="matrix(1 0 0 1 0 -214.6142)">
					<stop  offset="0" style="stop-color:#636363"/>
					<stop  offset="1" style="stop-color:#000000"/>
				</linearGradient>
				<path class="st52" d="M610.6,312.5c-4.3,0-8.5-1.6-12.6-4.9c-3.3-2.6-6-6-8.3-10c-1.9-3.3-3.5-7.7-5.2-13.1
					c-0.6-1.8-1-4.7-1.4-8.6l5,2c1,4.4,2.1,8,3.5,10.7s3.5,6,6.6,9.7c2.7,3.3,6.8,4.9,12,4.9c3.3,0,6.2-0.9,8.3-2.7
					c2.3-1.8,3.3-4.2,3.3-7.1c0-1.3-0.4-2.6-1-3.8c-2.9,3.6-6.8,5.3-11.8,5.3c-2.7,0-5-0.7-7-2.4c-2.1-1.5-3.3-3.5-3.5-5.8l-1.7-10
					c-1.2-0.2-2.3-0.7-3.1-1.6s-1.2-2-1.2-3.1c0-1.5,0.6-2.7,1.9-3.6c1.2-0.9,2.7-1.3,4.5-1.1c4.3,0.2,6.6,2.7,6.6,7.3v12.8
					c0,0.9,0.6,1.5,1.7,1.3c1.2-0.2,2.5-0.7,3.5-1.6c0,0,1-1.3,3.1-4s3.3-4.6,3.5-5.5c7,4.4,10.5,10,10.5,16.6
					c0,4.9-1.4,9.1-4.5,12.6C620.3,310.5,616,312.5,610.6,312.5z"/>
			</g>
			<g>
				
					<linearGradient id="SVGID_49_" gradientUnits="userSpaceOnUse" x1="-111.7399" y1="402.9453" x2="1017.4479" y2="509.876" gradientTransform="matrix(1 0 0 1 0 -214.6142)">
					<stop  offset="0" style="stop-color:#636363"/>
					<stop  offset="1" style="stop-color:#000000"/>
				</linearGradient>
				<path class="st53" d="M823.4,298.9c-4.3,0-8.5-1.6-12.6-4.9c-3.3-2.6-6-6-8.3-10c-1.9-3.3-3.5-7.7-5.2-13.1
					c-0.6-1.8-1-4.7-1.4-8.6l5,2c1,4.4,2.1,8,3.5,10.7s3.5,6,6.6,9.7c2.7,3.3,6.8,4.9,12,4.9c3.3,0,6.2-0.9,8.3-2.7
					c2.3-1.8,3.3-4.2,3.3-7.1c0-1.3-0.4-2.6-1-3.8c-2.9,3.6-6.8,5.3-11.8,5.3c-2.7,0-5-0.7-7-2.4c-2.1-1.5-3.3-3.5-3.5-5.8l-1.7-10
					c-1.2-0.2-2.3-0.7-3.1-1.6s-1.2-2-1.2-3.1c0-1.5,0.6-2.7,1.9-3.6c1.2-0.9,2.7-1.3,4.5-1.1c4.3,0.2,6.6,2.7,6.6,7.3v12.8
					c0,0.9,0.6,1.5,1.7,1.3c1.2-0.2,2.5-0.7,3.5-1.6c0,0,1-1.3,3.1-4s3.3-4.6,3.5-5.5c7,4.4,10.5,10,10.5,16.6
					c0,4.9-1.4,9.1-4.5,12.6C833.1,296.9,828.8,298.9,823.4,298.9z"/>
			</g>
			<g>
				
					<linearGradient id="SVGID_50_" gradientUnits="userSpaceOnUse" x1="-90.5176" y1="178.8377" x2="1038.6702" y2="285.7684" gradientTransform="matrix(1 0 0 1 0 -214.6142)">
					<stop  offset="0" style="stop-color:#636363"/>
					<stop  offset="1" style="stop-color:#000000"/>
				</linearGradient>
				<path class="st54" d="M28.8-3.9c-3.3,1.6-6.2,2.6-8.7,2.6c-1.2,0-3.1-0.5-5.2-1.5c-2.9-1.3-4.3-3.1-4.3-5.5
					c0-1.8,0.8-3.6,2.3-5.1c1.4-1.5,3.1-2.4,5.2-3.1c0.8-0.2,2.1-0.4,3.1-0.4c3.9,0,7,0.7,9.1,2.4c1.2-1.5,1.9-2.7,1.9-4.2
					c0-1.3-0.8-2.7-2.7-4.7c-4.1-4.2-8.7-8.4-13.8-12.6c-3.1-2.6-4.7-5.1-4.7-7.3c0-2.4,1.2-4.4,3.7-5.5c1-0.5,2.1-0.7,3.1-0.7
					c1.9,0,3.1,0.5,4.3,1.6c1,1.1,1.7,2.6,1.7,4.2c0,0.4-0.2,1.3-0.6,2.4C34.1-32,39.7-24.2,39.7-17.8C39.3-12.3,35.8-7.5,28.8-3.9z
					"/>
			</g>
		</g>
	</g>
	<g class="st4">
		<g>
			<g>
				
					<linearGradient id="SVGID_51_" gradientUnits="userSpaceOnUse" x1="-80.9696" y1="78.0096" x2="1048.2185" y2="184.9402" gradientTransform="matrix(1 0 0 1 0 -214.6142)">
					<stop  offset="0" style="stop-color:#636363"/>
					<stop  offset="1" style="stop-color:#000000"/>
				</linearGradient>
				<path class="st55" d="M787.3-71l38.6-0.9l-4.3,3.5c-1.4,0.2-3.3,0.9-5.8,2s-3.9,2.2-5,3.1c-0.4,0.4-1,1.3-1.7,2.4l22.7-0.5
					l-3.7,3.5l-4.7,1.6c-1.9,0.9-3.1,1.5-3.5,1.8c-5.4,3.3-8.7,8.6-9.9,15.8l-7.8,5.1c-3.1-3.3-5.2-5.8-6.4-7.3
					c-0.4-0.5-2.5-4-6.6-10.2c-1,1.1-1.7,2.2-2.1,3.1c1.2,0.7,2.7,2.2,3.9,4.2s2.1,3.8,2.3,5.3c0,0.7,0.2,1.3,0.2,1.6
					c0,2.2-0.6,4-1.9,5.5c-1.2,1.5-3.1,2.2-5.6,2.4c-1.7,0-3.1-0.5-4.5-1.5c-1.2-1.1-1.9-2.4-2.1-3.8c0-2.4,1.4-3.8,4.3-4.4
					c-0.8-2.7-2.9-5.1-6.6-6.7c1.9-3.6,4.3-6.6,7.4-8.7l-14.4,0.4l6.6-6.2l24.1-0.5c1.2-1.8,2.7-3.3,4.1-4.6l-34.5,0.9l5-5.6
					l4.7-0.4l-0.2-3.5l6.6-6.4L787.3-71z M797.4-55c2.1,3.1,4.1,6.2,6.6,8.9c2.3-3.6,5-6.7,8.3-9.3L797.4-55z"/>
			</g>
			<g>
				
					<linearGradient id="SVGID_52_" gradientUnits="userSpaceOnUse" x1="-89.524" y1="168.3451" x2="1039.6639" y2="275.2758" gradientTransform="matrix(1 0 0 1 0 -214.6142)">
					<stop  offset="0" style="stop-color:#636363"/>
					<stop  offset="1" style="stop-color:#000000"/>
				</linearGradient>
				<path class="st56" d="M745,41.8c-1.4,2.9-3.7,5.1-6.8,6.9c-3.1,1.8-6.2,2.6-9.7,2.4c-5.8-0.2-11.6-3.5-16.7-10
					c-3.3-4-5.8-8-7.2-11.8c-1.2-3.3-2.5-7.7-3.1-13.1l6.4,2.4c1,7.5,4.3,13.8,9.9,18.8c3.1,2.9,6.4,4.2,9.9,4.2
					c3.3,0,6.4-1.1,9.1-3.1c2.7-2,4.1-4.6,3.9-7.3c-0.2-4.2-1.2-7.1-2.7-8.6c-0.8-0.7-2.1-1.6-4.1-2.4c0.4,0.9,0.6,1.8,0.6,2.7
					c0,2.2-0.8,4-2.7,5.6s-3.9,2.4-6.4,2.4c-2.7,0-4.7-0.9-6.6-2.7c-1.9-1.8-2.7-4-2.7-6.4c0-1.8,0.6-3.6,1.7-5.5s2.5-3.1,4.3-3.8
					c1.2-0.5,3.1-0.9,6-1.1c3.3-0.2,6.8,0.7,10.1,3.1c3.1,2,5.4,4.6,6.8,7.5c1.7,3.1,2.5,6.4,2.5,9.8C747.3,34.6,746.4,38,745,41.8z
					"/>
			</g>
			<g>
				
					<linearGradient id="SVGID_53_" gradientUnits="userSpaceOnUse" x1="-77.9814" y1="46.4546" x2="1051.2067" y2="153.3853" gradientTransform="matrix(1 0 0 1 0 -214.6142)">
					<stop  offset="0" style="stop-color:#636363"/>
					<stop  offset="1" style="stop-color:#000000"/>
				</linearGradient>
				<path class="st57" d="M923.3-71.8c-1.2,2.7-3.1,4-6,4c-1.7,0-3.3-0.5-4.5-1.6s-1.9-2.4-1.9-4c0-1.8,0.6-3.3,1.9-4.6
					c1.2-1.3,2.7-2,4.7-2c1.7,0,3.3,0.5,4.5,1.6s1.9,2.4,1.9,4C924-73.5,923.8-72.7,923.3-71.8z"/>
			</g>
			<g>
				
					<linearGradient id="SVGID_54_" gradientUnits="userSpaceOnUse" x1="-90.6027" y1="179.7356" x2="1038.5851" y2="286.6664" gradientTransform="matrix(1 0 0 1 0 -214.6142)">
					<stop  offset="0" style="stop-color:#636363"/>
					<stop  offset="1" style="stop-color:#000000"/>
				</linearGradient>
				<path class="st58" d="M795.4,39.1c0.6,0.2,3.1-0.5,7.6-2.2c1.4-0.5,4.1-1.5,8.3-2.7c4.1-1.3,8.5-1.5,12.8-0.5
					c4.3,0.9,7.8,2.9,10.9,6c2.9,2.9,3.7,7.3,2.1,12.9c-1.4,5.1-4.1,8.7-7.8,10.9l-4.5-8c-0.4-0.5-0.6-0.9-0.8-1.3
					c-1.7-2-4.7-3.1-9.1-3.3c-0.4,0-1.2,0.4-2.7,1.1c-0.8,0.5-1,1.8-0.6,3.6c0.4,1.6,1,2.9,1.7,3.6s1.2,1.1,1.9,1.1
					c2.9-2.4,5.6-2.2,7.8,0.5c1,1.1,1.4,2.4,1.4,3.6c0,1.5-0.6,2.6-1.9,3.5c-2.3,1.5-4.7,1.8-7.4,1.1c-2.5-0.5-4.5-2-6.4-4
					c-2.5-2.7-3.7-6-3.5-9.7c0-4,1.4-6.9,4.5-9.1c2.9-2,6.4-2.6,10.3-2c3.9,0.7,7,2.4,9.3,4.9c0.2,0.2,0.4,0.4,0.6,0.5l0.6-2
					c0.4-1.5,0-2.7-1-4.2c-1.9-2.4-4.7-3.1-8.7-2.7l-13.4,3.5c-3.5,0.9-7.2,1.5-10.9,1.3c-4.7,0-8.1-1.3-10.1-3.5
					c-0.2-0.4-0.6-0.7-0.8-1.1c-1.7-3.3-1.2-5.5,1-7.1c1.2-0.9,2.7-1.1,4.1-0.9c1.4,0.2,2.7,0.9,3.7,2
					C795.4,36.9,795.8,38,795.4,39.1z"/>
			</g>
			<g>
				
					<linearGradient id="SVGID_55_" gradientUnits="userSpaceOnUse" x1="-83.6454" y1="106.2658" x2="1045.5424" y2="213.1965" gradientTransform="matrix(1 0 0 1 0 -214.6142)">
					<stop  offset="0" style="stop-color:#636363"/>
					<stop  offset="1" style="stop-color:#000000"/>
				</linearGradient>
				<path class="st59" d="M871.7-28.3l-6.8-6H920l7.2,6H871.7z M912.4,3.2c-3.5,1.8-7,2.7-10.3,2.7c-6.4,0-12-2.9-16.7-8.6
					c-2.7-3.1-4.5-5.8-5.4-7.8c-2.7-6-5.2-12-7.2-18.2l5.2,1.8c1.7,3.6,3.1,6.4,4.1,8.6c1.9,3.5,3.5,6.2,5.2,8
					c3.9,4.9,9.1,7.5,15.1,7.5c2.7,0,5.6-1.1,8.5-3.3c2.3-1.6,3.3-3.5,3.3-5.6c0-1.6-0.6-3.3-1.9-4.9c-1.2-1.8-2.9-2.7-4.7-2.7
					c-0.2,0-0.6,0-1.2,0.2c0.8,1.1,1,2.4,1,3.8c0,4.4-2.7,6.6-8.3,6.6c-2.7,0-5-0.9-6.4-2.6c-1.7-1.6-2.3-3.6-2.3-6.2
					c0-2.7,1.2-5.1,3.5-6.7c2.3-1.8,5.2-2.6,8.3-2.6c1,0,2.5,0.2,4.3,0.5c6.2,1.3,10.3,5.3,12.8,12c0.6,1.8,1,3.6,1,5.3
					C920.2-3.5,917.8,0.5,912.4,3.2z"/>
			</g>
			<g>
				
					<linearGradient id="SVGID_56_" gradientUnits="userSpaceOnUse" x1="-87.6672" y1="148.7373" x2="1041.5209" y2="255.6678" gradientTransform="matrix(1 0 0 1 0 -214.6142)">
					<stop  offset="0" style="stop-color:#636363"/>
					<stop  offset="1" style="stop-color:#000000"/>
				</linearGradient>
				<path class="st60" d="M974.1,24l-6.2,12.2c3.3,0.4,6.4-0.5,9.5-2.4c0.8-0.5,2.1-1.1,3.7-1.6c2.1,2.2,3.3,4.7,3.7,8
					c0.4,3.1-0.2,6-1.7,8.7c-1,2-2.5,4-4.5,6c-2.5,2.4-5.2,3.8-8.7,4.2c-3.3,0.4-6.8,0-10.1-1.5c-4.7-1.8-8.1-4.7-9.5-8.6
					c-0.8-2-1.4-5.5-1.9-10.2c0.2-5.6,1-10.7,2.7-15.5c0.2-0.5,1.2-3.1,2.9-7.7l3.5,4c-1.2,3.1-2.1,6.4-2.5,9.8
					c-0.6,4-0.4,7.3,0.4,10c0.8,2.7,1.2,4.2,1.4,4.4c1,2.2,3.1,3.8,6.4,5.1c2.7,1.1,5.6,1.3,8.5,0.7c2.9-0.5,5.2-2,6.6-4.2
					c0.8-1.1,1-2.6,0.6-4c-2.7,1.5-5.8,2.2-9.1,2.6c-2.3,0.2-4.1,0-5.8-0.5c-3.3-1.3-4.5-4-3.9-8.2c0.2-0.5,2.7-5.3,7-14.2
					l-15.7-6.2l-3.5-8l46.4,18.2l3.5,7.8L974.1,24z"/>
			</g>
			<g>
				
					<linearGradient id="SVGID_57_" gradientUnits="userSpaceOnUse" x1="-84.4399" y1="114.6574" x2="1044.7482" y2="221.5881" gradientTransform="matrix(1 0 0 1 0 -214.6142)">
					<stop  offset="0" style="stop-color:#636363"/>
					<stop  offset="1" style="stop-color:#000000"/>
				</linearGradient>
				<path class="st61" d="M1039.1-12.1v43.7l-4.5-5.8c-4.5-9.7-12.2-14.9-22.9-15.7l-6.8-8.6c9.1-5.8,18.4-10,27.5-12.8v-1.1h-28.7
					l-6.6-6h45.4l6.8,6h-10.1L1039.1-12.1L1039.1-12.1z M1032.5-2.4c-4.3,1.5-9.1,3.6-14,6.4c5.6,2.4,10.3,5.8,14,10V-2.4z"/>
			</g>
			<g>
				
					<linearGradient id="SVGID_58_" gradientUnits="userSpaceOnUse" x1="-83.78" y1="107.6883" x2="1045.4081" y2="214.6188" gradientTransform="matrix(1 0 0 1 0 -214.6142)">
					<stop  offset="0" style="stop-color:#636363"/>
					<stop  offset="1" style="stop-color:#000000"/>
				</linearGradient>
				<path class="st62" d="M1121.9-5.3l28.9,33.5l-4.7-0.7c-0.6-0.2-1.7-0.7-2.9-1.3c-5-2.7-9.5-4-13.8-3.5
					c-5.4,0.5-9.9,1.8-13.8,3.8l-15.5-3.3c3.1-1.3,5.2-2.2,6.2-2.7c1.9-1.3,3.5-2.7,5-4.6c1.7-2,2.7-4,2.9-5.8
					c0.2-1.3,0-2.4-0.6-3.1c-0.4-0.5-1.4-0.9-2.5-1.3l-0.4,2.6c-0.4,1.6-1.4,3.5-2.9,5.5c-1.4,2-2.7,3.5-4.3,4.4
					c-1.7,1.1-3.5,1.6-5.6,1.5c-2.1-0.2-3.7-0.9-5-2.4c-1-1.3-1.4-2.6-1.2-4c0.2-1.5,1-2.7,2.3-3.6c2.3-1.5,4.3-1.5,6.4,0l0.6-1.1
					c0.4-0.9,1-3.6,1.9-8.6c5.2,0.2,8,0.4,9.1,0.5c3.7,0.5,6.2,1.8,7.8,3.6c3.1,3.6,3.3,7.8,0.4,12.9c4.5-0.5,8.9-0.2,13,0.7
					L1106.6-13l5.8-0.5c0.2,0.5,0.8,1.1,1.7,1.8c0.8,0.9,1.7,1.5,2.1,1.6c0.4,0,1.2-0.4,2.7-1.1l9.5,1.1L1121.9-5.3z"/>
			</g>
			<g>
				
					<linearGradient id="SVGID_59_" gradientUnits="userSpaceOnUse" x1="-93.2624" y1="207.8223" x2="1035.9257" y2="314.753" gradientTransform="matrix(1 0 0 1 0 -214.6142)">
					<stop  offset="0" style="stop-color:#636363"/>
					<stop  offset="1" style="stop-color:#000000"/>
				</linearGradient>
				<path class="st63" d="M930.6,72.3v41.9l-3.7-3.1l-4.7-7.8c-2.1-2.6-4.7-4.7-8.1-6.4c-3.5-1.6-7-2.6-10.7-2.7l-6.8-8.4
					c9.3-5.8,18.4-10,27.5-12.6v-0.9h-27.2l-7-6h42.5l7,6H930.6z M912.2,109.4c-1.7,0-2.9-0.5-4.1-1.6c-1.2-1.1-1.9-2.2-1.9-3.6
					c0-1.3,0.6-2.6,1.7-3.5c1-1.1,2.3-1.5,3.9-1.5s2.9,0.5,4.1,1.5c1.2,1.1,1.9,2.2,1.9,3.6c0,1.3-0.6,2.6-1.7,3.6
					C915.1,109.1,913.6,109.4,912.2,109.4z M923.8,81.2c-4.5,1.5-9.3,3.6-14.2,6.6c5.6,2.4,10.3,5.8,14.2,10.7V81.2z"/>
			</g>
			<g>
				
					<linearGradient id="SVGID_60_" gradientUnits="userSpaceOnUse" x1="-101.5306" y1="295.1346" x2="1027.6573" y2="402.0653" gradientTransform="matrix(1 0 0 1 0 -214.6142)">
					<stop  offset="0" style="stop-color:#636363"/>
					<stop  offset="1" style="stop-color:#000000"/>
				</linearGradient>
				<path class="st64" d="M935.7,178.3v1.3c0,2.9,0.8,5.1,2.7,6.7c0.8,0.7,2.3,1.3,4.3,1.6c2.1,0.4,3.9,0.5,5.2,0.4
					c2.7-0.4,5.2-0.5,7-0.5c4.5,0,8.3,0.7,10.9,2.4l1,0.9v-27c0,0,0,0-0.2,0c-1.4,0-3.5,0.7-5.8,2.2c-1.9,1.3-3.5,2.6-4.7,3.8
					c-0.8,0.9-1.2,1.8-1.7,2.9c0.2,0,0.6,0,0.8,0c1.7,0,2.9,0.5,3.7,1.6s1.4,2.4,1.4,3.8c0,1.3-0.4,2.6-1.4,3.6s-2.1,1.8-3.5,2
					c-0.8,0.2-1.7,0.2-2.3,0.2c-3.7,0-6.2-1.3-7.6-4c-0.8-1.3-1-2.7-1-4.2c0-2.7,1-5.5,3.3-8.6c2.1-2.7,4.3-4.9,7.2-6.7
					c3.5-2.2,6.8-3.3,10.1-3.1c1.7,0,3.5,0.9,5.6,2.6c2.1,1.6,3.1,3.3,3.1,4.6v41.5c-1.2-1.1-2.7-2-3.9-3.1
					c-0.6-0.7-1.2-1.8-1.7-3.5c-0.8-3.3-3.3-4.9-6.8-4.9c-1.2,0-3.5,0.2-7.2,0.7c-2.5,0.4-4.5,0.5-6.2,0.5c-7.4,0-12.6-2.4-15.3-7.1
					c-1.4-2.6-2.3-5.5-2.3-8.7s1.2-6.9,3.5-10.4c0.2-0.2,0.4-0.5,0.8-0.7c0.2-0.2,0.4-0.2,0.8-0.2c0.2,0,0.4,0.2,0.8,0.4l2.3,2.2
					C937.2,173.5,936.3,175.7,935.7,178.3z"/>
			</g>
			<g>
				
					<linearGradient id="SVGID_61_" gradientUnits="userSpaceOnUse" x1="-94.3446" y1="219.2502" x2="1034.8431" y2="326.181" gradientTransform="matrix(1 0 0 1 0 -214.6142)">
					<stop  offset="0" style="stop-color:#636363"/>
					<stop  offset="1" style="stop-color:#000000"/>
				</linearGradient>
				<path class="st65" d="M1001.4,97.4c-1-0.5-2.1-1.5-3.1-2.6l-0.8-1.8l-6.4-5.6h46.2l7,6.2h-9.1V136l-4.1-4l-1.9-5.1
					c-0.8-2-1.9-3.5-3.1-4.6c-2.5-2-4.3-3.3-5.8-3.8c-2.7,2.4-5.4,3.5-8.3,3.5s-5-0.7-6.4-2c-0.8-0.9-1.4-1.5-1.4-1.8
					c-0.6-1.5-0.8-2.7-0.8-3.8c0-2.6,1-4.6,3.1-6c1.9-1.3,4.3-2,7.2-2c0.8,0,1.4,0,2.1,0.2c-0.4-2.4-1.4-4-3.3-5.3
					c-1.4-1.1-3.7-1.8-6.6-2.6C1003.8,98.5,1002.2,97.9,1001.4,97.4z M1028.6,93.6h-16.9c1.2,0.9,2.7,2.2,4.5,3.5
					c3.1,2.7,5.4,6.6,6.6,11.7c0.2,0.9,0.2,2,0.2,3.3c1.2,1.1,3.1,2.7,5.4,5.1V93.6H1028.6z"/>
			</g>
			<g>
				
					<linearGradient id="SVGID_62_" gradientUnits="userSpaceOnUse" x1="-100.891" y1="288.3806" x2="1028.2968" y2="395.3112" gradientTransform="matrix(1 0 0 1 0 -214.6142)">
					<stop  offset="0" style="stop-color:#636363"/>
					<stop  offset="1" style="stop-color:#000000"/>
				</linearGradient>
				<path class="st66" d="M784.2,157.9c-1.9,1.3-3.7,1.8-5.4,1.8c-4.7,0-7.2-2.2-7.2-6.6c0-5.6,3.1-8.6,9.5-8.6
					c3.3,0,6.2,1.1,8.3,3.1c2.3,2,3.3,4.6,3.3,7.5c0,4.6-3.7,9.1-11.1,13.3l-0.2,0.2H800v-26.8l6.8-6v41L800,183v-8.4h-49.5l5.4-3.5
					c0.4,0,0.8,0,1.4,0c5.2,0,11.4-1.6,19-4.7c1.7-0.7,3.3-2,5.2-3.6C783,161.2,783.8,159.5,784.2,157.9z"/>
			</g>
			<g>
				
					<linearGradient id="SVGID_63_" gradientUnits="userSpaceOnUse" x1="-96.5168" y1="242.1893" x2="1032.6713" y2="349.12" gradientTransform="matrix(1 0 0 1 0 -214.6142)">
					<stop  offset="0" style="stop-color:#636363"/>
					<stop  offset="1" style="stop-color:#000000"/>
				</linearGradient>
				<path class="st67" d="M725.2,127.6c-2.5,0.9-4.5,1.5-6.4,1.3c-1.2-0.2-3.1-0.7-5.6-1.6c-4.1-1.6-7.2-4.2-9.5-7.7
					s-3.3-7.3-3.1-11.3c-0.2-1.1,0-4,0.6-9.1c0.2-2,1.7-6.9,4.3-15.1l2.9,4.7c-1,4.4-1.4,7.3-1.7,8.7c-0.2,0.9-0.2,2.6,0,4.9
					c0.2,8.7,3.3,14.2,9.5,16.6c2.5,0.9,4.7,1.3,6.8,0.9c2.3-0.4,4.1-1.5,5.6-3.5c0.6-0.9,0.6-2.2,0.2-3.8c-1.7,0.7-3.9,1.3-6.4,1.6
					c-3.1,0.5-5.2,0.5-6.4,0c-1.9-0.7-3.3-2.2-4.3-4.4c-1-2.2-1.2-4.2-0.6-5.8l4.1-8.6c-1.7-2.7-3.5-6.2-5.4-10.2
					c-0.4-1.1-0.8-2.9-1.2-5.5l9.3,1.3c0.2,1.3,0.2,3.5,0.4,6.6c0,0.5,0.4,1.8,1.2,3.6c0-0.5,0-1.1,0.2-1.5c0.8-1.8,3.7-2.7,8.3-3.1
					c1.7-0.2,3.1,0.2,4.7,0.7c1.9,0.7,3.3,1.6,4.3,2.7c1.4,1.5,1.9,2.9,1.7,4.4c-0.2,1.3-0.4,2.4-1,3.3c-1.2,2.4-3.3,3.8-6.2,4.4
					c-2.5,0.4-5.2,0-8.1-1.1c-1.4-0.5-2.7-1.3-3.5-1.8l-2.5,5.1c-0.6,1.1-0.4,1.8,0.4,2.2c0.8,0.4,1.9,0.4,3.1,0l4.5-1.6
					c1-0.4,2.3-1.1,3.9-2.6c2.7,2.4,4.3,5.1,5,8.2c0.6,3.1,0.2,6.2-1.4,9.3C731.4,123.8,728.7,126.2,725.2,127.6z M732.6,93.9
					c-0.4-0.2-1.4-0.4-3.1-0.4c-2.5-0.2-4.5,0.4-6.2,1.8c0.2,0.2,0.4,0.4,0.8,0.5c0.6,0.4,1.9,0.4,3.3,0.5c1.9,0.2,3.3,0,4.3-0.4
					c0.8-0.2,1.2-0.5,1.4-0.9C733.2,94.5,733,94.1,732.6,93.9z"/>
			</g>
			<g>
				
					<linearGradient id="SVGID_64_" gradientUnits="userSpaceOnUse" x1="-81.9541" y1="88.4065" x2="1047.2336" y2="195.3371" gradientTransform="matrix(1 0 0 1 0 -214.6142)">
					<stop  offset="0" style="stop-color:#636363"/>
					<stop  offset="1" style="stop-color:#000000"/>
				</linearGradient>
				<path class="st68" d="M725.8-57.2c-1.4,1.5-2.7,2.4-3.9,2.7c-0.8,0.2-2.1,0.4-3.7,0.4c-3.1,0-5.8-1.1-8.1-3.1s-3.5-4.6-3.5-7.3
					c0-2.6,1-4.9,3.3-7.1s4.7-3.1,7.8-3.1s5.8,1.1,7.8,3.1c2.3,2.2,3.3,4.6,3.3,7.3C728.9-61.6,727.9-59.4,725.8-57.2z M729.3-30.5
					c-3.5-2.9-10.3-7.5-20-13.5v-11.7c3.7,2.6,7.8,5.8,12.2,9.5c2.5,2,7.6,7.3,15.3,15.8v6L729.3-30.5z M720.6-68.5
					c-1.2-0.2-3.1,0.5-5.4,2.2c-1.2,0.9-1.9,2.4-1.9,4.2c0,1.3,0.4,2,1.4,2s2.3-0.4,3.7-1.3c1.7-0.9,2.5-1.6,2.9-2.6
					c0.2-0.5,0.4-1.3,0.4-2.4C722.1-67.6,721.7-68.4,720.6-68.5z"/>
			</g>
			<g>
				
					<linearGradient id="SVGID_65_" gradientUnits="userSpaceOnUse" x1="-90.2525" y1="176.038" x2="1038.9354" y2="282.9687" gradientTransform="matrix(1 0 0 1 0 -214.6142)">
					<stop  offset="0" style="stop-color:#636363"/>
					<stop  offset="1" style="stop-color:#000000"/>
				</linearGradient>
				<path class="st69" d="M575.5,10.1v36.6l-4.3-3.8l-1.9-4.7c-1.2-2.6-3.3-4.7-6-6.4v19.7l-4.1-3.8c-1.2-2.6-1.9-4-2.1-4.2
					c-0.4-1.1-1.4-2.4-2.7-3.8c-4.3-5.1-9.9-7.8-16.7-8.4l-7.2-7.8c8.3-5.5,17.1-9.8,26.2-12.9v-0.4h-27.5l-6.8-6h40.7v20.9
					c2.1,1.3,3.7,2.7,5.2,4.4V-4.4l4.3,3.1l0.6,3.1c0,0.5,0.2,1.1,0.6,1.8c0.8,0.4,1.4,0.5,2.3,0.5c0.4,0,0.8,0,1.4,0l6.8,6
					L575.5,10.1L575.5,10.1z M556.8,18.9c-4.1,1.5-8.5,3.5-12.6,6c5,2.4,9.3,5.6,12.6,10V18.9z"/>
			</g>
			<g>
				
					<linearGradient id="SVGID_66_" gradientUnits="userSpaceOnUse" x1="-97.3964" y1="251.4778" x2="1031.7914" y2="358.4084" gradientTransform="matrix(1 0 0 1 0 -214.6142)">
					<stop  offset="0" style="stop-color:#636363"/>
					<stop  offset="1" style="stop-color:#000000"/>
				</linearGradient>
				<path class="st70" d="M624.7,120l-47.1-7.3l5-2.9c11.6-2.7,18.2-8.4,20-16.8l10.1-4.7c3.7,5.1,6.8,9.5,8.9,13.1
					c0.6-0.9,1.2-2.6,1.7-4.9c0.4-2.4,1-4,1.7-4.7c1-1.3,2.7-2,5-2.4c0.2,0,0.6-0.2,1.2-0.5c0.2-0.2,0.4-0.4,0.8-0.5l0.8-0.5l6-3.6
					l-7.6,38.4l-7.8,4.7L624.7,120z M607.5,111.2c1.7-1.1,3.3-2.2,5-2.9c1-0.5,1.7-0.9,1.7-0.9c-0.6-1.6-2.5-4.2-5.4-7.7
					c-3.3,4-7.4,7.3-12.4,9.8L607.5,111.2z M625.9,114l2.3-11.1c-3.1,2.7-5.8,4.6-8.1,5.6c-1.2,1.1-2.9,2.4-4.7,4L625.9,114z"/>
			</g>
			<g>
				
					<linearGradient id="SVGID_67_" gradientUnits="userSpaceOnUse" x1="-83.5014" y1="104.7467" x2="1045.6865" y2="211.6773" gradientTransform="matrix(1 0 0 1 0 -214.6142)">
					<stop  offset="0" style="stop-color:#636363"/>
					<stop  offset="1" style="stop-color:#000000"/>
				</linearGradient>
				<path class="st71" d="M628.2-56.3h-15.7l-6.8-6h57.8l6.8,6h-27c-0.6,0.2-1.2,0.5-2.3,1.3c-0.2,0.2-0.2,0.4-0.2,0.4
					c0,0.5,1.2,1.3,3.7,2c2.3,0.5,3.7,0.9,4.7,0.9c1.2,0,2.9-0.4,5.2-0.9l4.5-1.3c2.3,2,5,4.4,8.3,7.3c-4.7,4-7.2,8.4-7.6,13.3
					l-0.4,4.9c0,2.9,1,6.6,3.3,10.9c0,0.9-0.4,1.3-1.4,1.3c-0.6,0-1.7-0.2-3.1-0.7c-1.4-0.4-2.1-0.9-2.3-1.3l-2.3-8.2
					c-0.8-2.9-1.2-5.6-1.2-8.2c0-3.3,0.6-6.9,2.1-10.7c-6.8-0.2-12-1.5-15.3-4c-0.2-0.2-1.4-1.5-3.5-3.8c-1,0.4-2.3,1.5-3.7,3.6
					c-1.4,2.2-2.3,3.6-2.3,4.6c0,1.1,0.6,1.6,2.1,1.6c0.8,0,3.1-0.9,7-2.6c1-0.4,1.9-0.7,2.7-1.1c0.6,0,1,0.2,1.4,0.5h-0.2
					c0.8,0.4,1.9,1.1,2.9,2.4c2.9,3.1,4.3,6.2,4.3,9.3c0,3.3-1.2,6.2-3.9,8.4c-2.7,2.4-5.8,3.5-9.5,3.5c-5.6,0-10.5-2.4-14.4-7.1
					c-3.7-4.4-6-9.8-6.6-16.4c-0.2-2.6-0.4-5.1-0.4-7.8c0-1.1,0.4-1.6,1-1.6c0.2,0,0.4,0.2,0.8,0.4c1.4,0.7,2.5,1.3,3.1,1.6
					c-0.2,4.6,0.6,8.9,2.7,13.3c1.4,3.3,4.1,5.8,7.6,7.8c1.7,0.9,3.3,1.3,5,1.3c1.9-0.2,3.7-0.5,5.6-1.3c2.5-0.9,3.7-2,3.7-3.5
					c0-0.5-0.2-0.9-0.6-1.5c-0.2-0.5-0.4-0.7-0.8-0.7c-0.2,0-0.4,0-0.6,0.2c-3.1,1.1-5.6,1.8-7.6,1.8c-1.7,0-3.5-0.4-5.2-1.1
					c-4.3-2.6-6.4-5.8-6.4-10.2c0-2.2,1.4-5.1,4.1-8.4L628.2-56.3z"/>
			</g>
			<g>
				
					<linearGradient id="SVGID_68_" gradientUnits="userSpaceOnUse" x1="-90.4437" y1="178.0564" x2="1038.7445" y2="284.9872" gradientTransform="matrix(1 0 0 1 0 -214.6142)">
					<stop  offset="0" style="stop-color:#636363"/>
					<stop  offset="1" style="stop-color:#000000"/>
				</linearGradient>
				<path class="st72" d="M638.5,55c-4.3,0.4-8.5-0.5-12-2.7c-3.9-2.4-6-5.5-6-9.3c0-0.9,0.2-1.6,0.4-2.2c1.4-3.8,4.1-6.4,7.6-7.7
					c-4.3-2-6.6-5.1-6.6-9.7c0-4,1.9-7.3,5.6-10c3.5-2.4,7.6-3.6,12.4-3.6c3.7,0,7,0.9,9.9,2.9c3.1,2.2,4.5,4.9,4.5,8
					c0,1.6-0.6,3.5-1.9,5.3s-2.7,3.3-4.5,4.4c5.2,2.2,7.8,6.2,8.1,11.8c0.2,3.8-1.7,6.9-5.6,9.3C647.2,53.5,643.2,54.6,638.5,55z
					 M643.2,38.4c-2.5-1.6-4.5-2.6-6-2.6c-2.3,1.5-3.9,2.6-4.5,3.1c-1.7,1.5-2.5,2.9-2.5,4.4c0,0.7,0.2,1.6,0.8,2.4
					c1.4,2,3.9,3.1,7.4,3.1c4.7,0,7.8-1.8,9.1-5.3C647.2,41.8,645.7,40,643.2,38.4z M638.3,15.1c-1.9,0-3.5,0.4-5.2,1.3
					c-1.9,1.1-2.7,2.2-2.7,3.8c0,1.8,1,3.5,2.9,4.9c1.7,1.3,3.7,2.2,5.8,2.6c2.1-1.1,3.7-2,4.5-2.6c1.9-1.3,2.9-2.6,2.9-4
					c0-1.8-0.8-3.3-2.7-4.4C642.4,15.6,640.6,15.1,638.3,15.1z"/>
			</g>
			<g>
				
					<linearGradient id="SVGID_69_" gradientUnits="userSpaceOnUse" x1="-103.653" y1="317.5461" x2="1025.5348" y2="424.477" gradientTransform="matrix(1 0 0 1 0 -214.6142)">
					<stop  offset="0" style="stop-color:#636363"/>
					<stop  offset="1" style="stop-color:#000000"/>
				</linearGradient>
				<path class="st73" d="M661,193.4c-0.4,2.4-2.1,3.6-5.2,3.6c-0.4,0-1,0-1.4,0c-3.5-0.7-5.2-3.1-5.2-7.3v-13.3h-12.4
					c-2.9-0.2-5.6-1.5-8.1-3.8c-2.5-2.4-3.7-4.7-3.7-7.1c0-3.5,1.7-6.6,5-9.7c3.3-2.9,6.8-4.6,10.7-4.6c4.1,0,8.1,1.8,11.6,5.3
					s5.2,6.9,4.7,10.6v20.2c3.1,0.2,4.5,1.8,4.5,4.7C661.2,192.7,661,193,661,193.4z M647,163c-1.4-2.9-2.9-4.7-4.1-5.3
					c-1.4-0.2-3.3,0.5-5.8,2.4c-2.3,1.8-3.7,3.3-3.9,4.6c-0.2,0.7-0.2,1.5-0.2,2.2c0,0.9,0.2,1.5,0.8,1.6c0.2,0,0.8,0,2.3,0h13
					C648.8,167.3,648.2,165.3,647,163z"/>
			</g>
			<g>
				
					<linearGradient id="SVGID_70_" gradientUnits="userSpaceOnUse" x1="-107.8802" y1="362.1865" x2="1021.3076" y2="469.1171" gradientTransform="matrix(1 0 0 1 0 -214.6142)">
					<stop  offset="0" style="stop-color:#636363"/>
					<stop  offset="1" style="stop-color:#000000"/>
				</linearGradient>
				<path class="st74" d="M727.5,208.7l-4.1,8.9c-0.2,0.4-0.6,1.3-1.7,2.9c-0.4,0.7-0.4,1.1-0.4,1.1c2.9,0.2,6.4-0.7,10.7-3.1
					c2.5-1.3,3.9-1.8,4.5-1.6s1,0.5,1.2,1.3c3.1,5.3,3.3,10.6,0.8,16c-2.1,4.7-5.4,7.8-9.5,9.8c-4.3,2-9.3,2-14.4,0.2
					c-5.4-1.8-8.9-4.9-10.7-9.1c-3.1-7.5-3.1-16.4-0.2-26.8c0.2-0.9,1-3.5,2.5-7.7l3.7,4c-2.5,6.7-2.9,12.9-1.7,18.6
					c0.6,2.6,1.2,4.6,1.9,5.8c1.4,2.7,3.9,4.7,7.4,6c2.1,0.7,4.1,0.9,6.6,0.7s4.3-0.9,6-2c1.9-1.3,2.9-2.4,3.5-3.5
					c0.4-0.9,0.6-2,0.4-3.1c-1.7,0.7-4.3,1.6-8.5,2.6c-2.5,0.5-4.5,0.5-6.2-0.2c-3.7-1.3-5.2-4.2-4.7-8.9c0.2-0.9,0.8-2.2,1.4-3.8
					l4.7-10.4l-16.1-5.6l-3.9-7.8l48.9,17.3l3.9,7.8L727.5,208.7z M715.3,254.6c-2.1,1.6-4.1,2-6.4,1.3c-1.7-0.5-2.9-1.6-3.5-3.1
					c-0.8-1.5-0.8-2.9-0.2-4.4s1.9-2.6,3.5-3.3c1.7-0.7,3.3-0.9,5-0.4s2.9,1.6,3.5,3.1s0.8,2.9,0,4.4
					C716.9,253,716.3,253.9,715.3,254.6z"/>
			</g>
			<g>
				
					<linearGradient id="SVGID_71_" gradientUnits="userSpaceOnUse" x1="-98.7694" y1="265.9762" x2="1030.4186" y2="372.907" gradientTransform="matrix(1 0 0 1 0 -214.6142)">
					<stop  offset="0" style="stop-color:#636363"/>
					<stop  offset="1" style="stop-color:#000000"/>
				</linearGradient>
				<path class="st75" d="M847.8,160.2l-5.4,7.1l-9.5-44.6l5.4-7.3L847.8,160.2z M856.1,135.1c0,0.2-0.4,0.4-0.8,0.5
					c-0.8-1.5-2.3-2.7-4.5-4c-2.1-1.3-4.1-2-6-2.4c-0.6-0.2-1-0.4-1-0.9c-0.4-1.6,1.4-4,5.4-7.3c3.7-2.9,6.6-4.6,8.7-4.9
					c7.6-1.3,14,0.5,19.6,5.3c2.1,1.8,3.3,4.4,4.1,7.8c0.8,3.6,0.2,7.3-1.4,10.6c-1,2.2-3.3,4.7-6.8,7.5c-3.1,2.6-6,4.6-8.7,6
					c-0.8,0.4-5.8,2.9-14.9,7.1l0.6-5.1c8.7-3.8,15.1-8.6,19-14c2.5-3.5,3.3-7.1,2.5-10.9c-0.8-3.6-3.1-6.2-7-7.8
					c-2.1-0.7-3.9-1.1-5.6-0.7c-1.4,0.2-3.1,0.9-4.7,2c0.6,0.2,1.4,0.5,2.5,1.1c3.3,1.6,5.6,4.9,6.8,9.7c0.8,3.5,0,6.6-2.3,9.5
					c-1,1.3-3.1,2.2-5.8,2.7c-2.3,0.4-4.3,0-6.2-1.1s-3.1-2.7-3.5-4.7c-0.4-2.2,0.2-4,1.9-5.5c1-0.9,2.3-1.6,3.5-1.8
					c1.7-0.2,3.3,0,5.6,1.1c0.2,0,0.2,0.2,0.2,0.4s-0.2,0.4-0.6,0.7l1-0.4c0.4,0.5,0,1.1-0.8,1.3L856.1,135.1z"/>
			</g>
			<g>
				
					<linearGradient id="SVGID_72_" gradientUnits="userSpaceOnUse" x1="-107.4609" y1="357.7582" x2="1021.7269" y2="464.6889" gradientTransform="matrix(1 0 0 1 0 -214.6142)">
					<stop  offset="0" style="stop-color:#636363"/>
					<stop  offset="1" style="stop-color:#000000"/>
				</linearGradient>
				<path class="st76" d="M840.6,253.5c-3.3,1.6-6.2,2.6-8.7,2.6c-1.2,0-3.1-0.5-5.2-1.5c-2.9-1.3-4.3-3.1-4.3-5.5
					c0-1.8,0.8-3.6,2.3-5.1c1.4-1.5,3.1-2.4,5.2-3.1c0.8-0.2,2.1-0.4,3.1-0.4c3.9,0,7,0.7,9.1,2.4c1.2-1.5,1.9-2.7,1.9-4.2
					c0-1.3-0.8-2.7-2.7-4.7c-4.1-4.2-8.7-8.4-13.8-12.6c-3.1-2.6-4.7-5.1-4.7-7.3c0-2.6,1.2-4.4,3.7-5.5c1-0.5,2.1-0.7,3.1-0.7
					c1.9,0,3.1,0.5,4.3,1.6c1,1.1,1.7,2.6,1.7,4.2c0,0.4-0.2,1.3-0.6,2.4c10.9,9.3,16.5,17.1,16.5,23.5
					C851.1,245.3,847.6,249.9,840.6,253.5z"/>
			</g>
			<g>
				
					<linearGradient id="SVGID_73_" gradientUnits="userSpaceOnUse" x1="-91.9478" y1="193.9402" x2="1037.24" y2="300.8708" gradientTransform="matrix(1 0 0 1 0 -214.6142)">
					<stop  offset="0" style="stop-color:#636363"/>
					<stop  offset="1" style="stop-color:#000000"/>
				</linearGradient>
				<path class="st77" d="M1110.8,113.8c-3.3,1.6-6.2,2.6-8.7,2.6c-1.2,0-3.1-0.5-5.2-1.5c-2.9-1.3-4.3-3.1-4.3-5.5
					c0-1.8,0.8-3.6,2.3-5.1c1.4-1.5,3.1-2.4,5.2-3.1c0.8-0.2,2.1-0.4,3.1-0.4c3.9,0,7,0.7,9.1,2.4c1.2-1.5,1.9-2.7,1.9-4.2
					c0-1.3-0.8-2.7-2.7-4.7c-4.1-4.2-8.7-8.4-13.8-12.6c-3.1-2.6-4.7-5.1-4.7-7.3c0-2.4,1.2-4.4,3.7-5.5c1-0.5,2.1-0.7,3.1-0.7
					c1.9,0,3.1,0.5,4.3,1.6c1,1.1,1.7,2.6,1.7,4.2c0,0.4-0.2,1.3-0.6,2.4c10.9,9.3,16.5,17.1,16.5,23.5
					C1121.5,105.4,1118,110.2,1110.8,113.8z"/>
			</g>
			<g>
				
					<linearGradient id="SVGID_74_" gradientUnits="userSpaceOnUse" x1="-105.0124" y1="331.902" x2="1024.1757" y2="438.8327" gradientTransform="matrix(1 0 0 1 0 -214.6142)">
					<stop  offset="0" style="stop-color:#636363"/>
					<stop  offset="1" style="stop-color:#000000"/>
				</linearGradient>
				<path class="st78" d="M1109.1,237.3h0.4c-1,0.4-2.3,0.4-3.5,0c-1.4-0.4-2.5-0.9-3.3-1.6c-1.9-1.6-2.7-3.8-2.3-6.4
					c-3.3,0.5-6.2-0.2-8.3-1.8c-2.3-2-2.5-4.4-0.8-7.3c0.2-0.5,0.6-0.9,1.2-1.5c2.3-2,5.4-2.9,9.3-2.6c0.6,0,1.7,0.2,3.1,0.4
					c0.2-0.7,0.2-1.5,0.4-2.6c-0.2-1.3-1-2.6-2.1-3.6c1.7,1.5,0.4,0.4-3.5-2.9l-0.2-8.6l8.7,7.5c1.7,1.5,2.7,3.1,3.1,5.1
					c0,1.3,0,3.1-0.4,5.6c3.5-0.9,6.8-0.4,10.5,1.3c1,0.5,1.9,0.9,2.1,1.1c1.7,1.5,1.7,5.5,0,12.6l-0.2,0.9l6.2-6.4l7.4-7.5
					c0.2,2.6,0.4,4.6,0.2,5.8c-0.2,0.9-0.6,1.6-1.4,2.4c-0.4,0.5-0.6,0.5-0.6,0.5c-0.2,0.7,0.2,1.6,1.4,2.9v8.4l-6.6-5.6l-33.6,30.2
					l-0.2-8.7l20.4-17.9c1-0.9,1.7-2.7,2.1-5.5c0.4-2.7,0.2-4.6-0.8-5.3c-1.2-0.9-2.7-1.3-3.9-0.9c0.4,2.7,0.6,4.6,0.6,5.3
					c0,2-0.8,3.5-2.3,4.7C1111.4,236.4,1110.3,237.1,1109.1,237.3z"/>
			</g>
		</g>
	</g>
</g>
</svg>
